<?xml version="1.0" encoding="utf-8"?>
<!-- Generator: Adobe Illustrator 16.0.0, SVG Export Plug-In . SVG Version: 6.00 Build 0)  -->
<!DOCTYPE svg PUBLIC "-//W3C//DTD SVG 1.1//EN" "http://www.w3.org/Graphics/SVG/1.1/DTD/svg11.dtd">
<svg version="1.1" id="Capa_1" xmlns="http://www.w3.org/2000/svg" xmlns:xlink="http://www.w3.org/1999/xlink" x="0px" y="0px"
	 width="512px" height="512px" viewBox="0 0 512 512" enable-background="new 0 0 512 512" xml:space="preserve">
<circle fill="#FFFFFF" cx="256" cy="260" r="234.5"/>
<g>
	<path fill="#666666" d="M163.567,144.143h184.868c17.555,0,31.921,12.998,31.921,31.92v184.873
		c0,18.922-14.366,31.921-31.921,31.921H163.567c-17.562,0-31.923-12.999-31.923-31.921V176.063
		C131.644,157.141,146.006,144.143,163.567,144.143L163.567,144.143z M312.821,171.776c-6.159,0-11.193,5.036-11.193,11.198v26.801
		c0,6.16,5.034,11.198,11.193,11.198h28.111c6.159,0,11.197-5.038,11.197-11.198v-26.801c0-6.162-5.038-11.198-11.197-11.198
		H312.821L312.821,171.776z M352.247,249.323h-21.89c2.07,6.763,3.193,13.926,3.193,21.337c0,41.368-34.62,74.903-77.313,74.903
		c-42.692,0-77.304-33.535-77.304-74.903c0-7.417,1.118-14.577,3.192-21.337h-22.842v105.061c0,5.437,4.448,9.888,9.888,9.888
		h173.194c5.439,0,9.889-4.448,9.889-9.888V249.323H352.247z M256.235,219.561c-27.585,0-49.95,21.668-49.95,48.399
		s22.365,48.399,49.95,48.399c27.587,0,49.954-21.668,49.954-48.399S283.825,219.561,256.235,219.561z"/>
</g>
</svg>
