<?xml version="1.0" encoding="utf-8"?>
<!-- Generator: Adobe Illustrator 16.0.0, SVG Export Plug-In . SVG Version: 6.00 Build 0)  -->
<!DOCTYPE svg PUBLIC "-//W3C//DTD SVG 1.1//EN" "http://www.w3.org/Graphics/SVG/1.1/DTD/svg11.dtd">
<svg version="1.1" id="Layer_1" xmlns="http://www.w3.org/2000/svg" xmlns:xlink="http://www.w3.org/1999/xlink" x="0px" y="0px"
	 width="1275.59px" height="907.09px" viewBox="0 0 1275.59 907.09" enable-background="new 0 0 1275.59 907.09"
	 xml:space="preserve">
<g>
	<g>
		<path d="M592.184,0H205.406c-43.161,0-78.148,34.987-78.148,78.148v750.794c0,43.159,34.987,78.147,78.148,78.147h386.777
			c43.16,0,78.148-34.986,78.148-78.147V78.148C670.332,34.987,635.346,0,592.184,0z M186.286,79.064
			c0.002-10.543,8.171-20.034,18.712-20.034H592.59c10.541,0,18.71,9.493,18.71,20.034v60.639H186.286V79.064z M611.302,829.992
			c0,10.543-8.169,20.034-18.71,20.034H204.998c-10.541,0-18.71-9.492-18.71-20.034v-96.058h425.014V829.992z M611.302,674.906
			H186.288V198.734h425.014V674.906z"/>
	</g>
</g>
<g>
	<g>
		<circle cx="398.795" cy="789.049" r="31.025"/>
	</g>
</g>
<path d="M755.464,342.953c30.262,40.879,46.586,89.594,47.522,141.028c0.938,51.434-13.737,100.58-42.351,142.668
	c-7.254,10.558-5.512,24.472,3.447,33.109c1.103,1.063,2.2,1.855,3.437,2.78c11.792,8.18,27.847,5.044,36.026-6.748
	c34.683-50.866,52.413-110.627,51.283-172.619c-1.131-61.991-21.028-121.067-57.541-170.633
	c-8.604-11.487-24.624-13.903-36.117-5.569C749.68,315.303,746.859,331.466,755.464,342.953z"/>
<path d="M921.957,745.671c57.988-83.156,88.248-180.992,87.471-283.331c-0.775-102.341-32.515-199.708-91.757-281.974
	c-8.211-11.581-24.339-14.031-35.92-5.82c-11.578,8.481-14.164,24.475-5.816,36.19c52.946,73.379,81.225,160.62,82.054,251.993
	c0.693,91.51-26.396,179.034-78.225,253.208c-7.366,10.48-5.771,24.413,3.095,33.144c1.091,1.075,2.181,1.879,3.405,2.818
	C897.698,760.204,913.922,757.373,921.957,745.671z"/>
</svg>
