<?xml version="1.0" encoding="utf-8"?>
<!-- Generator: Adobe Illustrator 16.0.0, SVG Export Plug-In . SVG Version: 6.00 Build 0)  -->
<!DOCTYPE svg PUBLIC "-//W3C//DTD SVG 1.1//EN" "http://www.w3.org/Graphics/SVG/1.1/DTD/svg11.dtd">
<svg version="1.1"
	 id="Layer_1" xmlns:cc="http://creativecommons.org/ns#" xmlns:dc="http://purl.org/dc/elements/1.1/" xmlns:inkscape="http://www.inkscape.org/namespaces/inkscape" xmlns:rdf="http://www.w3.org/1999/02/22-rdf-syntax-ns#" xmlns:sodipodi="http://sodipodi.sourceforge.net/DTD/sodipodi-0.dtd" xmlns:svg="http://www.w3.org/2000/svg"
	 xmlns="http://www.w3.org/2000/svg" xmlns:xlink="http://www.w3.org/1999/xlink" x="0px" y="0px" width="512px" height="512px"
	 viewBox="0 0 512 512" enable-background="new 0 0 512 512" xml:space="preserve">
<circle fill="#CCCCCC" cx="256" cy="256" r="227.75"/>
<path id="path9-3" fill="#666666" d="M380.63,276.603c-11.235-12.113-26.195-20.136-44.878-24.062v-1.629
	c13.002-5.409,23.184-13.872,30.564-25.383c7.377-11.505,11.066-24.639,11.066-39.395c0-12.727-2.676-23.963-8.017-33.718
	c-5.353-9.748-13.44-17.531-24.271-23.349c-10.024-5.416-20.744-8.97-32.188-10.664c-11.443-1.693-28.263-2.538-50.472-2.538
	H155.612v302.393h121.044c20.98,0,38.285-1.902,51.885-5.69c13.605-3.784,26.102-10.15,37.471-19.091
	c9.617-7.446,17.267-16.855,22.947-28.231c5.682-11.372,8.533-24.567,8.533-39.599C397.492,305.074,391.872,288.72,380.63,276.603
	L380.63,276.603z M231.17,171.304h5.275c13.539,0,23.728,0.103,30.562,0.304c6.843,0.206,12.758,1.392,17.777,3.554
	c5.279,2.308,9.162,6.027,11.667,11.171c2.507,5.148,3.762,10.156,3.762,15.025c0,6.643-1.157,12.462-3.449,17.467
	c-2.309,5.015-6.504,8.941-12.596,11.779c-5.555,2.575-10.928,3.993-16.143,4.269c-5.215,0.274-14.317,0.401-27.316,0.401h-9.54
	L231.17,171.304L231.17,171.304z M314.531,343.826c-3.18,5.752-8.225,10.125-15.129,13.092c-7.859,3.392-15.575,5.222-23.151,5.487
	c-7.584,0.271-21.259,0.414-41.016,0.414h-4.064v-75.759h14.005c13.545,0,24.336,0.102,32.39,0.308
	c8.057,0.201,14.39,1.188,18.99,2.946c7.585,2.71,13.264,6.698,17.059,11.979c3.796,5.279,5.693,12.59,5.693,21.933
	C319.308,331.535,317.712,338.075,314.531,343.826L314.531,343.826z"/>
</svg>
