<?xml version="1.0" standalone="no"?>
<!DOCTYPE svg PUBLIC "-//W3C//DTD SVG 1.1//EN" "http://www.w3.org/Graphics/SVG/1.1/DTD/svg11.dtd" >
<svg xmlns="http://www.w3.org/2000/svg" xmlns:xlink="http://www.w3.org/1999/xlink" version="1.1">
<metadata>
Created by FontForge 20170731 at Fri Jan  1 02:30:17 1904
 By ,,,
a_AssuanNarrow *Arsenal Company (c)1997* FAX: (095)924-3775; e-Mail: arsenal@itco.msk.su; Phone: (095)924-5811 (Design and Featuring W.Chufarofsky &#38; M.Slutsker)
</metadata>
<defs>
<font id="a_AssuanNr-Bold" horiz-adv-x="565" >
  <font-face 
    font-family="a_AssuanNr"
    font-weight="700"
    font-stretch="normal"
    units-per-em="1000"
    panose-1="2 4 9 6 3 7 6 5 2 4"
    ascent="800"
    descent="-200"
    x-height="579"
    cap-height="728"
    bbox="-21 -210 1059 911"
    underline-thickness="144"
    underline-position="-396"
    unicode-range="U+0020-203A"
  />
<missing-glyph horiz-adv-x="601" 
d="M40 0v689h521v-689h-521zM80 40h441v609h-441v-609z" />
    <glyph glyph-name=".notdef" horiz-adv-x="601" 
d="M40 0v689h521v-689h-521zM80 40h441v609h-441v-609z" />
    <glyph glyph-name=".null" horiz-adv-x="0" 
 />
    <glyph glyph-name="nonmarkingreturn" horiz-adv-x="333" 
 />
    <glyph glyph-name="space" unicode=" " horiz-adv-x="340" 
 />
    <glyph glyph-name="exclam" unicode="!" horiz-adv-x="346" 
d="M173 -6q-30 0 -47.5 3.5t-27 14t-12.5 30t-3 51.5q0 29 3 46.5t12.5 27t27 13t47.5 3.5q29 0 46 -3.5t26.5 -13t12.5 -27t3 -46.5q0 -32 -3 -51.5t-12.5 -30t-26.5 -14t-46 -3.5zM61 747h222l-24 -370q-2 -38 -5.5 -66t-12 -46.5t-24.5 -27.5t-44 -9q-29 0 -45 9
t-24.5 27.5t-12 46.5t-5.5 66z" />
    <glyph glyph-name="quotedbl" unicode="&#x22;" horiz-adv-x="326" 
d="M30 743h110v-119l-10 -151h-90l-10 151v119zM185 743h111v-119l-10 -151h-91l-10 151v119z" />
    <glyph glyph-name="numbersign" unicode="#" 
d="M245 417l-12 -116h86l12 116h-86zM223 203l-24 -203h-76l23 203h-100l12 98h99l12 116h-98l10 98h99l24 201h77l-24 -201h85l23 201h75l-21 -201h100l-12 -98h-100l-13 -116h99l-10 -98h-99l-23 -203h-77l23 203h-84z" />
    <glyph glyph-name="dollar" unicode="$" 
d="M54 73v174h191v-40q0 -58 39 -58q41 0 41 63q0 34 -33 55t-87 39q-42 14 -72 31t-49 40t-28 54.5t-9 75.5q0 102 38.5 154t126.5 66v54h148v-59q86 -24 148 -68v-154h-185v32q0 47 -39 47q-40 0 -40 -50q0 -23 27 -44t82 -38q49 -15 82 -32.5t52.5 -43.5t28 -62t8.5 -87
q0 -96 -40 -150t-124 -70v-61h-148v62q-106 21 -158 70z" />
    <glyph glyph-name="percent" unicode="%" horiz-adv-x="774" 
d="M584 236v-129q0 -19 5 -26t19 -7q12 0 17 7t5 26v129q0 34 -22 34q-24 0 -24 -34zM466 119v105q0 70 30.5 97t111.5 27q80 0 110.5 -26.5t30.5 -97.5v-105q0 -71 -30.5 -98t-110.5 -27q-81 0 -111.5 27t-30.5 98zM143 620v-129q0 -19 4.5 -26t17.5 -7q23 0 23 33v129
q0 20 -5.5 27.5t-17.5 7.5t-17 -7.5t-5 -27.5zM25 503v106q0 71 30.5 98t109.5 27q80 0 110.5 -27t30.5 -98v-106q0 -71 -30.5 -97.5t-110.5 -26.5q-79 0 -109.5 27t-30.5 97zM515 734h134l-390 -734h-135z" />
    <glyph glyph-name="ampersand" unicode="&#x26;" horiz-adv-x="586" 
d="M310 161h18v155h-4q-44 0 -60 -16.5t-16 -62.5q0 -42 14.5 -59t47.5 -17zM530 316v-316h-273q-61 0 -104 8.5t-70 31.5t-39 63.5t-12 103.5q0 147 88 182q-82 36 -82 147q0 101 60 154t172 53q131 0 260 -69v-143h-201q-1 57 -40 57t-39 -66q0 -39 15 -55t53 -16h10v39
h202v-39h33v-135h-33z" />
    <glyph glyph-name="quotesingle" unicode="'" horiz-adv-x="169" 
d="M30 743h110v-119l-10 -151h-90l-10 151v119z" />
    <glyph glyph-name="parenleft" unicode="(" horiz-adv-x="411" 
d="M373 741q-54 -108 -79.5 -208.5t-25.5 -204.5q0 -205 105 -411l-109 -78q-100 120 -147.5 241t-47.5 248q0 129 47 249t146 240z" />
    <glyph glyph-name="parenright" unicode=")" horiz-adv-x="411" 
d="M39 741l110 76q98 -120 145.5 -240t47.5 -249q0 -252 -194 -489l-109 78q53 104 78.5 205.5t25.5 205.5t-25 204.5t-79 208.5z" />
    <glyph glyph-name="asterisk" unicode="*" horiz-adv-x="368" 
d="M222 354h-78v121l-98 -59l-34 73l93 60l-93 60l34 73l98 -58v119h78v-119l97 58l36 -73l-96 -60l96 -60l-36 -73l-97 59v-121z" />
    <glyph glyph-name="plus" unicode="+" horiz-adv-x="816" 
d="M341 631h134v-226h220v-130h-220v-228h-134v228h-219v130h219v226z" />
    <glyph glyph-name="comma" unicode="," horiz-adv-x="297" 
d="M88 -97v45q11 0 25.5 15t14.5 31q-40 0 -53 17.5t-13 80.5q0 29 3 47t12.5 27.5t26.5 13t45 3.5t45 -3.5t26.5 -15t12.5 -32t3 -54.5q0 -32 -12 -63t-32.5 -56t-47.5 -40.5t-56 -15.5z" />
    <glyph glyph-name="hyphen" unicode="-" horiz-adv-x="337" 
d="M298 230h-259v172h259v-172z" />
    <glyph glyph-name="period" unicode="." horiz-adv-x="297" 
d="M149 -6q-28 0 -45 3.5t-26.5 14t-12.5 30t-3 51.5q0 29 3 46.5t12.5 27t26.5 13t45 3.5t45 -3.5t26.5 -13t12.5 -27t3 -46.5q0 -32 -3 -51.5t-12.5 -30t-26.5 -14t-45 -3.5z" />
    <glyph glyph-name="slash" unicode="/" horiz-adv-x="315" 
d="M315 728l-191 -819h-145l191 819h145z" />
    <glyph glyph-name="zero" unicode="0" 
d="M320 216v301q0 40 -8.5 56.5t-29.5 16.5q-20 0 -29.5 -16.5t-9.5 -56.5v-301q0 -40 9 -56t30 -16t29.5 17t8.5 55zM49 252v227q0 76 12 127t39 81.5t71.5 43t110.5 12.5t111 -12.5t72.5 -43t40 -81.5t12.5 -127v-227q0 -76 -12.5 -126.5t-40.5 -81t-73 -43t-110 -12.5
t-109.5 12.5t-72 43t-39.5 81t-12 126.5z" />
    <glyph glyph-name="one" unicode="1" 
d="M184 196v341q0 31 -6 45.5t-18 22.5v123l221 22v-554q0 -32 4.5 -45.5t17.5 -21.5v-129h-243v129q13 8 18.5 22.5t5.5 44.5z" />
    <glyph glyph-name="two" unicode="2" 
d="M508 0h-461v164q0 51 6.5 86t23.5 61t44.5 47t69.5 45q7 5 17 10t23 13q93 50 93 101q0 28 -10.5 44.5t-28.5 16.5q-41 0 -41 -69v-50h-185v197q101 76 235 76q116 0 171.5 -56t55.5 -173q0 -54 -11.5 -92t-37.5 -67q-4 -4 -22 -16.5t-42 -28t-51.5 -32.5t-50.5 -30
q-33 -19 -51 -34t-18 -50v-7h31q32 0 43 14t13 58h184v-228z" />
    <glyph glyph-name="three" unicode="3" 
d="M47 526v202h454v-169l-104 -98q30 -12 54 -29t40.5 -42.5t25 -62t8.5 -88.5q0 -250 -244 -250q-71 0 -131.5 18.5t-110.5 52.5v211h183v-41q0 -56 12 -71t44 -15q29 0 42 21t13 83q0 60 -13 81t-39 21q-13 0 -23.5 -7t-27.5 -26l-80 98l151 163h-31q-32 0 -40 -5t-8 -22
v-25h-175z" />
    <glyph glyph-name="four" unicode="4" 
d="M481 0h-252v129q12 0 23.5 11.5t11.5 31.5v6h-231v138q60 98 99.5 205t55.5 211h236q-45 -114 -104.5 -216t-131.5 -200h76v64l183 108v-172h76v-138h-76q0 -22 8.5 -35.5t25.5 -13.5v-129z" />
    <glyph glyph-name="five" unicode="5" 
d="M62 74v174h184v-30q0 -38 8.5 -55.5t29.5 -17.5q36 0 36 57v88q0 64 -39 64q-13 0 -24 -9t-11 -28h-184v415h444v-188h-186q0 37 -28 37h-46v-100q42 21 93 21q96 0 140.5 -57.5t44.5 -196.5q0 -140 -55.5 -199.5t-176.5 -59.5q-68 0 -124 21t-106 64z" />
    <glyph glyph-name="six" unicode="6" 
d="M243 258v-42q0 -40 9 -56t30 -16t29.5 17t8.5 55v42q0 39 -8.5 55.5t-29.5 16.5q-20 0 -29.5 -16.5t-9.5 -55.5zM49 252v227q0 72 11 122.5t37 81.5t68 45.5t105 14.5q134 0 232 -80v-160h-182v14q0 40 -8.5 56.5t-29.5 16.5q-20 0 -29.5 -16.5t-9.5 -56.5v-65
q42 19 102 19q173 0 173 -232q0 -73 -13.5 -121t-42 -76.5t-73 -40.5t-107.5 -12q-65 0 -109.5 12.5t-72 43t-39.5 81t-12 126.5z" />
    <glyph glyph-name="seven" unicode="7" 
d="M54 732h465v-153q-36 -58 -64.5 -128.5t-49 -146.5t-31 -154t-10.5 -150h-200q0 145 41 292.5t107 286.5h-34q-38 0 -50.5 -14.5t-12.5 -49.5v-45h-161v262z" />
    <glyph glyph-name="eight" unicode="8" 
d="M128 383q-43 20 -60.5 53.5t-17.5 94.5q0 111 55 161.5t177 50.5t177 -50t55 -162q0 -61 -17.5 -94.5t-58.5 -53.5q88 -40 88 -171q0 -113 -60.5 -168t-183.5 -55q-124 0 -183.5 55t-59.5 168q0 131 89 171zM243 238v-22q0 -40 9 -56t30 -16t29.5 17t8.5 55v22
q0 39 -8.5 55.5t-29.5 16.5q-20 0 -29.5 -16.5t-9.5 -55.5zM320 517q0 39 -8.5 56t-29.5 17q-20 0 -29.5 -16.5t-9.5 -56.5t9 -56t30 -16t29.5 15.5t8.5 56.5z" />
    <glyph glyph-name="nine" unicode="9" 
d="M320 465v50q0 39 -8.5 56t-29.5 17q-20 0 -29.5 -17t-9.5 -56v-50q0 -40 9 -56.5t30 -16.5t29.5 17.5t8.5 55.5zM518 479v-226q0 -72 -11.5 -123t-38 -82.5t-69 -46t-105.5 -14.5q-135 0 -232 74v157h181v-9q0 -67 39 -67q21 0 29.5 16t8.5 56v60q-37 -24 -97 -24
q-89 0 -131.5 59.5t-42.5 185.5q0 71 13 119t41.5 76.5t72.5 40.5t106 12q65 0 110 -12.5t73 -43t40.5 -81.5t12.5 -127z" />
    <glyph glyph-name="colon" unicode=":" horiz-adv-x="297" 
d="M149 -6q-28 0 -45 3.5t-26.5 14t-12.5 30t-3 51.5q0 29 3 46.5t12.5 27t26.5 13t45 3.5t45 -3.5t26.5 -13t12.5 -27t3 -46.5q0 -32 -3 -51.5t-12.5 -30t-26.5 -14t-45 -3.5zM149 330q-28 0 -45 3.5t-26.5 14t-12.5 30t-3 51.5q0 29 3 46.5t12.5 27t26.5 13t45 3.5
t45 -3.5t26.5 -13t12.5 -27t3 -46.5q0 -32 -3 -51.5t-12.5 -30t-26.5 -14t-45 -3.5z" />
    <glyph glyph-name="semicolon" unicode=";" horiz-adv-x="297" 
d="M149 330q-28 0 -45 3.5t-26.5 14t-12.5 30t-3 51.5q0 29 3 46.5t12.5 27t26.5 13t45 3.5t45 -3.5t26.5 -13t12.5 -27t3 -46.5q0 -32 -3 -51.5t-12.5 -30t-26.5 -14t-45 -3.5zM88 -97v45q11 0 25.5 15t14.5 31q-40 0 -53 17.5t-13 80.5q0 29 3 47t12.5 27.5t26.5 13
t45 3.5t45 -3.5t26.5 -15t12.5 -32t3 -54.5q0 -32 -12 -63t-32.5 -56t-47.5 -40.5t-56 -15.5z" />
    <glyph glyph-name="less" unicode="&#x3c;" horiz-adv-x="816" 
d="M690 601v-144l-384 -157l384 -156v-144l-564 234v134z" />
    <glyph glyph-name="equal" unicode="=" horiz-adv-x="816" 
d="M122 245h573v-130h-573v130zM122 471h573v-130h-573v130z" />
    <glyph glyph-name="greater" unicode="&#x3e;" horiz-adv-x="816" 
d="M126 601l564 -233v-134l-564 -234v144l384 156l-384 157v144z" />
    <glyph glyph-name="question" unicode="?" horiz-adv-x="559" 
d="M350 230h-194v55q0 45 11 73.5t28 46.5t36.5 30t36.5 25t28 30.5t11 47.5q0 22 -11.5 36t-29.5 14q-42 0 -42 -63v-22h-186v163q51 39 111.5 58t137.5 19q119 0 176.5 -55.5t57.5 -144.5q0 -50 -12.5 -80t-31.5 -49.5t-41.5 -33.5t-41.5 -32t-31.5 -45t-12.5 -73zM254 -6
q-29 0 -47 3.5t-27.5 14t-12.5 30t-3 51.5q0 29 3 46.5t12.5 27t27.5 13t47 3.5t46.5 -3.5t27 -13t12.5 -27t3 -46.5q0 -32 -3 -51.5t-12.5 -30t-27 -14t-46.5 -3.5z" />
    <glyph glyph-name="at" unicode="@" horiz-adv-x="861" 
d="M514 456l20 34h93l-60 -269q-1 -5 -1.5 -8t-0.5 -5q0 -20 19 -20q31 0 55 20t40.5 50.5t25 66t8.5 66.5q0 57 -20.5 99t-54.5 70.5t-78.5 42.5t-93.5 14q-110 0 -191 -61q-59 -46 -91.5 -115.5t-32.5 -150.5q0 -68 22 -120t60.5 -87t90.5 -52.5t112 -17.5q125 0 227 81
l45 -69q-125 -103 -280 -103q-73 0 -138 23t-114 66q-115 103 -115 276q0 76 21.5 143.5t63.5 121.5q58 76 140 117.5t178 41.5q68 0 128.5 -21t107 -61.5t73.5 -100t27 -136.5q0 -74 -26 -135t-76 -104q-58 -50 -126 -50q-85 0 -92 67q-22 -34 -48.5 -50t-62.5 -16
q-134 0 -134 152q0 48 13.5 92.5t39 79t61 55t80.5 20.5q59 0 85 -47zM471 276l17 84q-2 28 -16 44.5t-36 16.5q-24 0 -41 -17.5t-28.5 -43t-17 -55t-5.5 -52.5q0 -31 12 -48t34 -17q27 0 49.5 24t31.5 64z" />
    <glyph glyph-name="A" unicode="A" horiz-adv-x="589" 
d="M107 728h375v-129q-16 0 -16 -24q0 -6 1 -14.5t4 -19.5l80 -351q8 -38 14 -49.5t16 -11.5v-129h-250v129q8 4 14 12.5t6 23.5q0 4 -1 12.5t-3 24.5h-110q-4 -29 -4 -37q0 -28 20 -36v-129h-246v129q11 0 17 11.5t13 48.5l80 351q3 10 4 19t1 15q0 14 -4.5 19.5t-10.5 5.5
v129zM255 328h74l-37 267h-1z" />
    <glyph glyph-name="B" unicode="B" horiz-adv-x="604" 
d="M271 579v-137h21q68 0 68 69q0 68 -62 68h-27zM271 310v-161h21q71 0 71 83q0 78 -80 78h-12zM38 0v129q27 0 27 67v338q0 67 -27 67v127h301q229 0 229 -189q0 -64 -30 -100.5t-67 -55.5q54 -19 81.5 -63.5t27.5 -108.5q0 -107 -60.5 -159t-178.5 -52h-303z" />
    <glyph glyph-name="C" unicode="C" horiz-adv-x="574" 
d="M536 655v-207h-191v69q0 39 -12 55t-32 16q-23 0 -35 -15.5t-12 -55.5v-304q0 -39 12 -55t35 -16q21 0 32.5 16t11.5 55v83h191v-227q-45 -41 -101.5 -62.5t-139.5 -21.5q-133 0 -192.5 58t-59.5 202v237q0 140 61 200.5t191 60.5q76 0 133 -22.5t108 -65.5z" />
    <glyph glyph-name="D" unicode="D" horiz-adv-x="610" 
d="M299 0h-262v129q27 0 27 67v338q0 67 -27 67v127h262q74 0 125 -10t82.5 -37.5t45.5 -77.5t14 -130v-218q0 -80 -14 -130t-46 -77.5t-83 -37.5t-124 -10zM272 579v-430h29q31 0 43 15.5t12 59.5v287q0 42 -11.5 55t-43.5 13h-29z" />
    <glyph glyph-name="E" unicode="E" horiz-adv-x="582" 
d="M545 0h-508v129q27 0 27 67v338q0 67 -27 67v127h508v-245h-188v25q0 42 -13 56.5t-47 14.5h-23v-134h114v-141h-114v-155h23q33 0 46.5 18.5t13.5 71.5v27h188v-266z" />
    <glyph glyph-name="F" unicode="F" horiz-adv-x="545" 
d="M274 291v-95q0 -34 7.5 -48t25.5 -19v-129h-270v129q27 0 27 67v338q0 67 -27 67v127h484v-245h-182v29q0 39 -10.5 53t-38.5 14h-16v-144h100v-144h-100z" />
    <glyph glyph-name="G" unicode="G" horiz-adv-x="582" 
d="M536 662v-178h-194v33q0 39 -11 55t-32 16q-23 0 -34 -15.5t-11 -55.5v-304q0 -39 11 -55t34 -16q22 0 32.5 16t10.5 55v69h-43v138h237v-351q-45 -39 -99.5 -61.5t-137.5 -22.5q-133 0 -194.5 58t-61.5 202v237q0 140 62.5 200.5t193.5 60.5q76 0 131 -20.5t106 -60.5z
" />
    <glyph glyph-name="H" unicode="H" horiz-adv-x="640" 
d="M298 0h-261v129q27 0 27 67v338q0 67 -27 67v127h261v-127q-24 0 -24 -67v-87h91v87q0 34 -4.5 50.5t-18.5 16.5v127h261v-127q-27 0 -27 -67v-338q0 -67 27 -67v-129h-261v129q14 0 18.5 16t4.5 51v110h-91v-110q0 -35 5 -51t19 -16v-129z" />
    <glyph glyph-name="I" unicode="I" horiz-adv-x="347" 
d="M305 0h-263v129q14 0 20 16t6 51v338q0 67 -26 67v127h263v-127q-25 0 -25 -67v-338q0 -35 5.5 -51t19.5 -16v-129z" />
    <glyph glyph-name="J" unicode="J" horiz-adv-x="357" 
d="M10 3v128q44 0 61.5 20t17.5 85v308q0 26 -7.5 41.5t-24.5 15.5v127h265v-127q-23 0 -23 -60v-319q0 -44 -5.5 -85.5t-25 -73.5t-56.5 -52t-99 -20q-54 0 -103 12z" />
    <glyph glyph-name="K" unicode="K" horiz-adv-x="610" 
d="M298 0h-261v129q27 0 27 67v338q0 65 -27 65v129h261v-129q-15 0 -20 -15.5t-5 -49.5v-102l65 121q7 19 10.5 35.5t3.5 35.5v104h232v-129q-8 0 -19 -3.5t-21 -25.5l-90 -143q54 -12 79 -61.5t25 -153.5q0 -51 9 -67t22 -16v-129h-219q-10 19 -17 74.5t-7 126.5
q0 62 -13.5 83.5t-48.5 21.5h-11v-110q0 -35 5 -51t20 -16v-129z" />
    <glyph glyph-name="L" unicode="L" horiz-adv-x="551" 
d="M527 0h-490v129q15 0 21 16t6 51v338q0 67 -27 67v127h270v-127q-17 0 -25 -18t-8 -60v-374h13q33 0 44.5 11.5t11.5 55.5v90h184v-306z" />
    <glyph glyph-name="M" unicode="M" horiz-adv-x="743" 
d="M282 0h-244v129q27 0 27 67v338q0 65 -27 65v129h263l71 -314l64 314h270v-129q-27 0 -27 -65v-338q0 -67 27 -67v-129h-244v129q14 0 18 16t4 51v218l-77 -296h-70l-78 296v-218q0 -35 5 -51t18 -16v-129z" />
    <glyph glyph-name="N" unicode="N" horiz-adv-x="621" 
d="M361 0l-132 347v-151q0 -67 27 -67v-129h-219v129q13 0 20 18.5t7 48.5v338q0 67 -27 67v127h234l129 -368v174q0 67 -27 67v127h217v-127q-15 0 -20 -16.5t-5 -50.5v-534h-204z" />
    <glyph glyph-name="O" unicode="O" horiz-adv-x="591" 
d="M338 213v304q0 39 -9.5 55t-31.5 16q-23 0 -33 -15.5t-10 -55.5v-304q0 -39 10 -55t33 -16q22 0 31.5 16.5t9.5 54.5zM43 245v237q0 75 13.5 125t44 80.5t79 43t117.5 12.5t117 -12.5t78 -43t43.5 -80.5t13.5 -125v-237q0 -75 -13.5 -125t-43.5 -80t-78 -42.5t-117 -12.5
t-117.5 12.5t-79 42.5t-44 80t-13.5 125z" />
    <glyph glyph-name="P" unicode="P" horiz-adv-x="590" 
d="M271 579v-218h13q40 0 55.5 16t15.5 58v67q0 45 -15.5 61t-55.5 16h-13zM306 0h-269v129q27 0 27 67v336q0 67 -27 67v129h291q64 0 108.5 -14t72.5 -46t40.5 -83.5t12.5 -126.5q0 -57 -10 -103t-34 -79t-64 -50.5t-99 -17.5q-20 0 -43 4t-41 13v-29q0 -35 8 -51t27 -16
v-129z" />
    <glyph glyph-name="Q" unicode="Q" horiz-adv-x="592" 
d="M301 -15q-71 0 -120 12t-79.5 41.5t-44.5 79.5t-14 127v237q0 75 13.5 125t44 80.5t79 43t117.5 12.5t117 -12.5t78 -43t43.5 -80.5t13.5 -125v-237q0 -97 -22.5 -147.5t-60.5 -69.5q7 -17 61 -17h22v-142h-33q-97 0 -149 33.5t-66 82.5zM338 213v304q0 39 -9.5 55
t-31.5 16q-23 0 -33 -15.5t-10 -55.5v-304q0 -39 10 -55t33 -16q22 0 31.5 16.5t9.5 54.5z" />
    <glyph glyph-name="R" unicode="R" horiz-adv-x="610" 
d="M273 581v-145h21q36 0 49.5 14t13.5 58q0 43 -15 58t-58 15h-11zM273 293v-97q0 -36 5.5 -51.5t19.5 -15.5v-129h-261v129q27 0 27 67v338q0 67 -27 67v127h298q56 0 100 -7.5t74 -29t45.5 -60t15.5 -99.5q0 -69 -24 -109.5t-74 -56.5q50 -20 67.5 -49.5t17.5 -83.5v-21
q0 -34 7.5 -58.5t23.5 -24.5v-129h-224q-5 15 -11.5 63.5t-6.5 132.5q0 63 -14 80t-48 17h-11z" />
    <glyph glyph-name="S" unicode="S" horiz-adv-x="580" 
d="M48 63v183h202v-28q0 -40 10 -57t35 -17q19 0 31 16.5t12 46.5q0 12 -3.5 21.5t-17 19.5t-38.5 23t-69 33q-55 25 -89 49t-52.5 50.5t-25 56.5t-6.5 66q0 217 255 217q73 0 131 -22.5t110 -65.5v-156h-195v33q0 37 -12.5 45.5t-33.5 8.5q-42 0 -42 -51q0 -25 30.5 -45
t86.5 -40q53 -19 88 -38t56 -46t30 -65.5t9 -97.5q0 -118 -61.5 -168t-187.5 -50q-79 0 -144 20.5t-109 57.5z" />
    <glyph glyph-name="T" unicode="T" horiz-adv-x="626" 
d="M16 728h595v-303h-144v106q0 48 -48 48v-383q0 -35 11 -51t25 -16v-129h-282v129q14 0 24.5 16t10.5 51v383q-50 0 -50 -48v-106h-142v303z" />
    <glyph glyph-name="U" unicode="U" horiz-adv-x="612" 
d="M323 601v127h257v-127q-26 0 -26 -67v-331q0 -123 -62 -170.5t-186 -47.5t-186 47.5t-62 170.5v331q0 67 -26 67v127h256v-127q-14 0 -18.5 -16.5t-4.5 -50.5v-321q0 -39 9.5 -55t31.5 -16q23 0 32 16t9 55v321q0 34 -5 50.5t-19 16.5z" />
    <glyph glyph-name="V" unicode="V" horiz-adv-x="570" 
d="M568 728v-129q-8 0 -16 -9.5t-16 -50.5l-97 -539h-308l-97 539q-7 41 -15.5 50.5t-15.5 9.5v129h245v-129q-10 0 -15 -10.5t-5 -24.5q0 -6 1 -17t6 -38l49 -357h2l51 357q4 27 4.5 38t0.5 17q0 14 -4.5 24.5t-15.5 10.5v129h246z" />
    <glyph glyph-name="W" unicode="W" horiz-adv-x="779" 
d="M529 728h246v-129q-8 0 -17 -9.5t-16 -50.5l-76 -539h-230l-45 306l-49 -306h-228l-77 539q-5 41 -14.5 50.5t-17.5 9.5v129h245v-129q-8 -4 -14 -12.5t-6 -22.5q0 -6 1.5 -16.5t4.5 -38.5l24 -251h2l58 374h140l58 -374h1l26 251q3 28 4 38.5t1 16.5q0 14 -6.5 22.5
t-14.5 12.5v129z" />
    <glyph glyph-name="X" unicode="X" horiz-adv-x="568" 
d="M4 0v129q4 0 11.5 7t22.5 31l136 211l-117 188q-22 33 -38 33v129h243v-83q0 -19 2.5 -28.5t8.5 -26.5l10 -27h1l12 27q5 17 7 26.5t2 28.5v83h245v-129q-18 0 -39 -33l-116 -188l134 -211q16 -24 23 -31t12 -7v-129h-259v98q0 20 -3.5 30t-7.5 23l-10 30h-1l-9 -30
q-4 -13 -8 -23t-4 -30v-98h-258z" />
    <glyph glyph-name="Y" unicode="Y" horiz-adv-x="535" 
d="M304 728h232v-127q-8 0 -15 -7t-17 -27l-131 -280v-91q0 -35 7 -51t24 -16v-129h-272v129q18 0 24.5 16t6.5 51v91l-131 280q-10 20 -17 27t-15 7v127h232v-84q0 -43 4 -71t17 -66l15 -41l15 41q14 38 17.5 66t3.5 71v84z" />
    <glyph glyph-name="Z" unicode="Z" horiz-adv-x="574" 
d="M550 258v-258h-520v149l290 430h-66q-28 0 -43 -12.5t-15 -47.5v-35h-158v244h512v-149l-270 -430h54q34 0 46.5 11.5t12.5 49.5v48h157z" />
    <glyph glyph-name="bracketleft" unicode="[" horiz-adv-x="411" 
d="M354 -118h-268v865h268v-118h-98v-629h98v-118z" />
    <glyph glyph-name="backslash" unicode="\" horiz-adv-x="313" 
d="M334 -91h-143l-191 819h145z" />
    <glyph glyph-name="bracketright" unicode="]" horiz-adv-x="411" 
d="M57 -118v118h97v629h-97v118h269v-865h-269z" />
    <glyph glyph-name="asciicircum" unicode="^" horiz-adv-x="479" 
d="M187 761h106l140 -271h-95l-98 148l-97 -148h-96z" />
    <glyph glyph-name="underscore" unicode="_" horiz-adv-x="480" 
d="M-5 -83h490v-118h-490v118z" />
    <glyph glyph-name="grave" unicode="`" horiz-adv-x="490" 
d="M255 597l-155 177h136l92 -177h-73z" />
    <glyph glyph-name="a" unicode="a" horiz-adv-x="535" 
d="M296 161v71h-16q-33 0 -47 -11.5t-14 -46.5q0 -30 8 -39t23 -9q22 0 34 10.5t12 24.5zM503 0h-202l-5 48q-23 -28 -52.5 -42.5t-72.5 -14.5q-66 0 -102.5 40.5t-36.5 113.5q0 30 5.5 64.5t24.5 64t56.5 48.5t100.5 19q23 0 40.5 -3t36.5 -11v85q0 31 -9 43t-28 12
q-17 0 -26 -12t-9 -43v-18h-168v126q38 31 95 51.5t108 20.5q105 0 163 -41t58 -145v-237q0 -63 23 -63v-106z" />
    <glyph glyph-name="b" unicode="b" horiz-adv-x="540" 
d="M243 160q0 -20 12.5 -27t19.5 -7q21 0 30 16t9 70v138q0 62 -9 83t-31 21q-16 0 -31 -11v-283zM243 761v-210q25 20 57 30.5t61 10.5q44 0 71 -15t42 -45t20.5 -75t5.5 -107v-138q0 -63 -9.5 -106t-35 -69t-69 -37t-112.5 -11q-21 0 -49.5 4t-58.5 13t-58.5 23t-48.5 34
v516q0 46 -7.5 61t-17.5 15v106h209z" />
    <glyph glyph-name="c" unicode="c" horiz-adv-x="503" 
d="M468 521v-165h-166v55q0 31 -10 43.5t-28 12.5q-20 0 -29 -15.5t-9 -67.5v-189q0 -52 9 -67t29 -15q19 0 28.5 12.5t9.5 43.5v66h166v-180q-39 -33 -88 -50t-122 -17q-116 0 -167 46t-51 161v189q0 111 52.5 159t165.5 48q66 0 116 -18t94 -52z" />
    <glyph glyph-name="d" unicode="d" horiz-adv-x="540" 
d="M298 160v283q-16 11 -31 11q-22 0 -31.5 -21t-9.5 -83v-138q0 -54 9.5 -70t30.5 -16q8 0 20 7t12 27zM305 0v36q-23 -22 -56 -34.5t-69 -12.5q-73 0 -106.5 49.5t-33.5 173.5v138q0 62 5.5 107t20.5 75t42.5 45t71.5 15q28 0 60.5 -10.5t57.5 -30.5v26q0 45 -9.5 61.5
t-22.5 16.5v106h216v-579q0 -45 6 -60.5t18 -15.5v-106h-201z" />
    <glyph glyph-name="e" unicode="e" horiz-adv-x="525" 
d="M40 195v190q0 60 12.5 99.5t39.5 63.5t70 34t104 10q60 0 101.5 -10t68 -34t38 -63.5t11.5 -99.5v-134h-259v-56q0 -49 9.5 -64.5t30.5 -15.5q19 0 29.5 15.5t10.5 64.5h179v-125q-38 -44 -95.5 -62.5t-123.5 -18.5q-61 0 -104 10t-70 33.5t-39.5 63t-12.5 99.5zM226 385
v-20h80v20q0 50 -10.5 65t-29.5 15q-21 0 -30.5 -15t-9.5 -65z" />
    <glyph glyph-name="f" unicode="f" horiz-adv-x="314" 
d="M278 0h-243v106q15 0 21 12.5t6 51.5v291h-32v118h32v40q0 77 35.5 115t99.5 38q27 0 54 -2t50 -9v-106q-35 0 -45 -8t-10 -33v-35h35v-118h-35v-291q0 -38 9 -51t23 -13v-106z" />
    <glyph glyph-name="g" unicode="g" horiz-adv-x="542" 
d="M309 579h197v-121q-10 0 -17 -12.5t-7 -43.5v-415q0 -94 -55.5 -145.5t-165.5 -51.5q-63 0 -109 14t-96 42v125h170v-12q0 -25 9 -35t26 -10q19 0 28 13.5t9 56.5v80q-25 -20 -57.5 -30t-60.5 -10q-44 0 -71.5 14.5t-42.5 44.5t-20.5 75.5t-5.5 106.5v104q0 123 33.5 173
t106.5 50q36 0 69 -13t56 -35zM298 420q0 20 -12 27t-20 7q-21 0 -30.5 -16t-9.5 -69v-104q0 -61 9.5 -82t31.5 -21q8 0 15 3t16 7v248z" />
    <glyph glyph-name="h" unicode="h" horiz-adv-x="553" 
d="M267 0h-232v106q13 0 19 19t6 50v404q0 46 -7 61t-18 15v106h209v-210q25 20 57 30.5t61 10.5q38 0 64.5 -16t43 -43t23.5 -62.5t7 -74.5v-221q0 -41 6.5 -55t18.5 -14v-106h-191q-10 45 -14 86t-4 104v186q0 46 -10 62t-32 16q-10 0 -17 -6.5t-13 -15.5v-255
q0 -32 6 -51.5t17 -19.5v-106z" />
    <glyph glyph-name="i" unicode="i" horiz-adv-x="306" 
d="M273 0h-239v106q30 0 30 67v243q0 32 -7 44.5t-18 12.5v106h209v-402q0 -71 25 -71v-106zM151 625q-29 0 -47 3t-28 11t-13.5 23.5t-3.5 41.5q0 22 3.5 35.5t13.5 21t28 10t47 2.5t47 -2.5t28 -10t13.5 -21t3.5 -35.5q0 -26 -3.5 -41.5t-13.5 -23.5t-28 -11t-47 -3z" />
    <glyph glyph-name="j" unicode="j" horiz-adv-x="306" 
d="M39 579h209v-608q0 -90 -39.5 -132.5t-109.5 -42.5q-18 0 -43 3.5t-48 10.5v107q32 0 44 15t12 49v435q0 32 -7 44.5t-18 12.5v106zM151 625q-29 0 -47 3t-28 11t-13.5 23.5t-3.5 41.5q0 22 3.5 35.5t13.5 21t28 10t47 2.5t47 -2.5t28 -10t13.5 -21t3.5 -35.5
q0 -26 -3.5 -41.5t-13.5 -23.5t-28 -11t-47 -3z" />
    <glyph glyph-name="k" unicode="k" horiz-adv-x="544" 
d="M301 579h208v-121q-9 0 -18 -4t-22 -25l-64 -107q51 -12 69.5 -39.5t18.5 -96.5q0 -51 6 -65.5t21 -14.5v-106h-190q-8 14 -14.5 50.5t-6.5 95.5q0 57 -11.5 75t-36.5 18h-16v-80q0 -29 4.5 -38.5t17.5 -14.5v-106h-228v106q25 0 25 53v450q0 28 -6.5 37t-18.5 9v106h206
v-416l35 69q13 25 17 38.5t4 37.5v89z" />
    <glyph glyph-name="l" unicode="l" horiz-adv-x="304" 
d="M37 761h210v-584q0 -71 25 -71v-106h-240v106q30 0 30 67v425q0 31 -7 44t-18 13v106z" />
    <glyph glyph-name="m" unicode="m" horiz-adv-x="813" 
d="M782 0h-191q-9 45 -13 86t-4 104v179q0 47 -10 62.5t-32 15.5q-16 0 -30 -22v-250q0 -41 7 -55t18 -14v-106h-190q-11 45 -14.5 86t-3.5 104v179q0 47 -9.5 62.5t-32.5 15.5q-10 0 -17 -6.5t-13 -15.5v-248q0 -32 6.5 -51.5t16.5 -19.5v-106h-232v106q13 0 19 19t6 50
v222q0 46 -7.5 61t-17.5 15v106h201l2 -48q10 14 25.5 25t33.5 19t36 12.5t32 4.5q43 0 68.5 -16.5t44.5 -50.5q31 32 68.5 49.5t69.5 17.5q39 0 65.5 -16t43 -43t23.5 -62.5t7 -74.5v-221q0 -41 7 -55t17 -14v-106z" />
    <glyph glyph-name="n" unicode="n" horiz-adv-x="557" 
d="M270 0h-232v106q13 0 19 19t6 50v222q0 46 -7.5 61t-17.5 15v106h201l2 -38q25 23 60 37t63 14q38 0 64.5 -16t43 -43t23.5 -62.5t7 -74.5v-221q0 -41 7 -55t18 -14v-106h-190q-11 45 -14.5 86t-3.5 104v179q0 47 -9.5 62.5t-32.5 15.5q-10 0 -17 -6.5t-13 -15.5v-248
q0 -32 6.5 -51.5t16.5 -19.5v-106z" />
    <glyph glyph-name="o" unicode="o" horiz-adv-x="526" 
d="M301 195v190q0 50 -9 65t-28 15q-20 0 -29 -15t-9 -65v-190q0 -49 9 -64.5t29 -15.5q19 0 28 15.5t9 64.5zM40 195v190q0 60 12.5 99.5t39.5 63.5t69.5 34t102.5 10t102.5 -10t69.5 -34t39 -63.5t12 -99.5v-190q0 -59 -12 -98.5t-39 -63.5t-69.5 -34t-102.5 -10
t-102.5 10t-69.5 33.5t-39.5 63t-12.5 99.5z" />
    <glyph glyph-name="p" unicode="p" horiz-adv-x="540" 
d="M243 420v-283q14 -11 31 -11q22 0 31 21t9 83v139q0 53 -9 69t-30 16q-7 0 -19.5 -7t-12.5 -27zM34 579h196l6 -35q22 22 55 35t70 13q73 0 106 -50t33 -173v-139q0 -62 -5.5 -107t-20.5 -75t-42 -44.5t-71 -14.5q-29 0 -61 10t-57 30v-43q0 -47 8.5 -62t21.5 -15v-107
h-239v107q10 0 17.5 14.5t7.5 60.5v427q0 32 -7.5 47t-17.5 15v106z" />
    <glyph glyph-name="q" unicode="q" horiz-adv-x="537" 
d="M298 420q0 20 -12 27t-20 7q-21 0 -30.5 -16t-9.5 -69v-139q0 -62 9.5 -83t31.5 -21q15 0 31 11v283zM309 579h173v-595q0 -46 6.5 -60.5t16.5 -14.5v-107h-239v107q13 0 22.5 16t9.5 61v43q-25 -20 -57.5 -30t-60.5 -10q-44 0 -71.5 14.5t-42.5 44.5t-20.5 75t-5.5 107
v139q0 123 33.5 173t106.5 50q36 0 69 -13t56 -35z" />
    <glyph glyph-name="r" unicode="r" horiz-adv-x="375" 
d="M281 0h-243v106q13 0 20 19t7 50v222q0 46 -8.5 61t-18.5 15v106h203l3 -51q13 28 40.5 42t43.5 14q21 0 36 -5v-143h-6q-22 0 -42 -3t-35 -13t-24 -27t-9 -46v-170q0 -37 10 -54t23 -17v-106z" />
    <glyph glyph-name="s" unicode="s" horiz-adv-x="508" 
d="M40 51v145h178v-22q0 -32 9 -45.5t29 -13.5q38 0 38 51q0 9 -3.5 16.5t-15 15.5t-33.5 18.5t-60 26.5q-48 20 -77 39t-45.5 40t-22 44.5t-5.5 52.5q0 86 57 129.5t166 43.5q62 0 112.5 -18t96.5 -52v-125h-170v27q0 28 -10.5 35t-28.5 7q-37 0 -37 -40q0 -20 26.5 -35.5
t75.5 -31.5q46 -15 76.5 -30.5t48.5 -36.5t25.5 -52t7.5 -78q0 -94 -53.5 -133.5t-164.5 -39.5q-67 0 -123.5 16t-96.5 46z" />
    <glyph glyph-name="t" unicode="t" horiz-adv-x="313" 
d="M22 579h34v91l183 91v-182h50v-118h-50v-269q0 -54 8.5 -70t32.5 -16h9v-104q-41 -13 -86 -13q-84 0 -115.5 46t-31.5 149v277h-34v118z" />
    <glyph glyph-name="u" unicode="u" horiz-adv-x="557" 
d="M288 579h207v-397q0 -46 8 -61t17 -15v-106h-201l-2 38q-25 -22 -60 -36t-63 -14q-76 0 -107 46t-31 129v241q0 40 -6.5 54.5t-17.5 14.5v106h189q11 -45 14.5 -86t3.5 -103v-180q0 -46 9.5 -62t32.5 -16q11 0 17.5 6.5t12.5 15.5v248q0 32 -6.5 51.5t-16.5 19.5v106z
" />
    <glyph glyph-name="v" unicode="v" horiz-adv-x="502" 
d="M500 579v-102q-8 0 -14.5 -7.5t-13.5 -40.5l-85 -429h-272l-84 429q-7 33 -14.5 40.5t-13.5 7.5v102h215v-102q-9 0 -13.5 -9t-4.5 -20q0 -4 1.5 -13t4.5 -30l44 -284h2l45 284q3 21 4 30t1 13q0 11 -4 20t-14 9v102h216z" />
    <glyph glyph-name="w" unicode="w" horiz-adv-x="688" 
d="M466 579h216v-102q-7 0 -14.5 -7.5t-13.5 -40.5l-67 -429h-203l-40 243l-42 -243h-200l-69 429q-5 33 -13 40.5t-15 7.5v102h215v-102q-6 0 -11.5 -9t-5.5 -20q0 -4 1 -12.5t4 -30.5l22 -199h2l51 297h122l51 -297h2l23 199q4 39 4 43q0 11 -6 20t-13 9v102z" />
    <glyph glyph-name="x" unicode="x" horiz-adv-x="495" 
d="M1 0v102q5 0 11 5.5t20 24.5l118 169l-102 149q-21 27 -35 27v102h215v-66q0 -11 1.5 -19.5t6.5 -24.5l11 -39h1l11 39q5 16 6 24.5t1 19.5v66h216v-102q-15 0 -36 -27l-101 -149l119 -169q14 -19 20 -24.5t10 -5.5v-102h-228v78q0 20 -9 43l-9 28h-1l-9 -28
q-10 -23 -10 -43v-78h-227z" />
    <glyph glyph-name="y" unicode="y" horiz-adv-x="540" 
d="M5 579h253v-106q-8 0 -13.5 -6.5t-5.5 -22.5q0 -4 1.5 -14t5.5 -28l39 -183l35 179q2 10 3 19.5t1 26.5q0 29 -19 29v106h230v-106q-6 0 -13.5 -11.5t-18.5 -48.5l-121 -446q-25 -89 -62 -133t-97 -44q-11 0 -27 2t-33 5t-33.5 7t-28.5 8v118q47 0 62 10t23 27l-146 454
q-10 34 -17.5 43t-17.5 9v106z" />
    <glyph glyph-name="z" unicode="z" horiz-adv-x="508" 
d="M483 206v-206h-459v119l256 341h-59q-25 0 -37.5 -9.5t-12.5 -37.5v-28h-139v194h451v-119l-239 -341h48q30 0 41 8.5t11 39.5v39h139z" />
    <glyph glyph-name="braceleft" unicode="{" horiz-adv-x="431" 
d="M379 714v-135h-18q-37 0 -50 -14.5t-13 -61.5v-101q0 -64 -16 -98.5t-57 -49.5q41 -16 57 -50.5t16 -97.5v-102q0 -46 12.5 -60.5t49.5 -14.5h19v-135h-34q-60 0 -97.5 8.5t-58 26.5t-27.5 46.5t-7 69.5v132q0 61 -20 86t-67 25h-17v133h17q47 0 67 24.5t20 85.5v132
q0 41 7 69.5t27.5 46.5t58 26.5t97.5 8.5h34z" />
    <glyph glyph-name="bar" unicode="|" horiz-adv-x="479" 
d="M172 761h134v-962h-134v962zM1 -210h-1v1h1v-1z" />
    <glyph glyph-name="braceright" unicode="}" horiz-adv-x="431" 
d="M51 714h35q60 0 97.5 -8.5t57.5 -26.5t27 -46.5t7 -69.5v-132q0 -61 20 -85.5t69 -24.5h15v-133h-15q-49 0 -69 -25t-20 -86v-132q0 -41 -7 -69.5t-27 -46.5t-57.5 -26.5t-97.5 -8.5h-35v135h19q38 0 50 14.5t12 60.5v102q0 63 16.5 97.5t57.5 50.5q-41 15 -57.5 49.5
t-16.5 98.5v101q0 47 -12 61.5t-50 14.5h-19v135z" />
    <glyph glyph-name="asciitilde" unicode="~" horiz-adv-x="816" 
d="M731 403v-143q-95 -64 -177 -64q-21 0 -61.5 9.5t-84.5 21t-83.5 21t-57.5 9.5q-41 0 -84 -18t-99 -57v142q57 36 103.5 52t91.5 16q24 0 62 -9.5t78.5 -21t77.5 -21t59 -9.5q41 0 83.5 17.5t91.5 54.5z" />
    <glyph glyph-name="quotesinglbase" horiz-adv-x="297" 
d="M88 -91v45q11 0 25.5 15t14.5 31q-20 0 -33 3.5t-20.5 14t-10 29.5t-2.5 51q0 29 3 47t12.5 27.5t26.5 13t45 3.5t45 -3.5t26.5 -15t12.5 -32t3 -54.5q0 -32 -12 -63t-32.5 -56t-47.5 -40.5t-56 -15.5z" />
    <glyph glyph-name="quotesinglbase" unicode="&#x201a;" horiz-adv-x="297" 
d="M88 -91v45q11 0 25.5 15t14.5 31q-20 0 -33 3.5t-20.5 14t-10 29.5t-2.5 51q0 29 3 47t12.5 27.5t26.5 13t45 3.5t45 -3.5t26.5 -15t12.5 -32t3 -54.5q0 -32 -12 -63t-32.5 -56t-47.5 -40.5t-56 -15.5z" />
    <glyph glyph-name="quotedblbase" horiz-adv-x="454" 
d="M57 -91v45q11 0 25 15t14 31q-20 0 -32.5 3.5t-20 14t-10 29.5t-2.5 51q0 29 3 47t12.5 27.5t26.5 13t45 3.5t45 -3.5t26.5 -15t12.5 -32t3 -54.5q0 -32 -12.5 -63t-33 -56t-47 -40.5t-55.5 -15.5zM275 -91v45q12 0 26 15t14 31q-20 0 -32.5 3.5t-20 14t-10 29.5t-2.5 51
q0 29 3 47t12.5 27.5t26.5 13t45 3.5t45 -3.5t26.5 -15t12.5 -32t3 -54.5q0 -32 -12.5 -63t-33 -56t-47.5 -40.5t-56 -15.5z" />
    <glyph glyph-name="quotedblbase" unicode="&#x201e;" horiz-adv-x="454" 
d="M57 -91v45q11 0 25 15t14 31q-20 0 -32.5 3.5t-20 14t-10 29.5t-2.5 51q0 29 3 47t12.5 27.5t26.5 13t45 3.5t45 -3.5t26.5 -15t12.5 -32t3 -54.5q0 -32 -12.5 -63t-33 -56t-47 -40.5t-55.5 -15.5zM275 -91v45q12 0 26 15t14 31q-20 0 -32.5 3.5t-20 14t-10 29.5t-2.5 51
q0 29 3 47t12.5 27.5t26.5 13t45 3.5t45 -3.5t26.5 -15t12.5 -32t3 -54.5q0 -32 -12.5 -63t-33 -56t-47.5 -40.5t-56 -15.5z" />
    <glyph glyph-name="ellipsis" unicode="&#x85;" horiz-adv-x="861" 
d="M145 -6q-28 0 -45 3.5t-26.5 14t-12.5 30t-3 51.5q0 29 3 46.5t12.5 27t26.5 13t45 3.5t45 -3.5t26 -13t12 -27t3 -46.5q0 -32 -3 -51.5t-12 -30t-26 -14t-45 -3.5zM432 -6q-28 0 -45.5 3.5t-26.5 14t-12 30t-3 51.5q0 29 3 46.5t12 27t26.5 13t45.5 3.5t45 -3.5t26 -13
t12 -27t3 -46.5q0 -32 -3 -51.5t-12 -30t-26 -14t-45 -3.5zM716 -6q-28 0 -45 3.5t-26.5 14t-12.5 30t-3 51.5q0 29 3 46.5t12.5 27t26.5 13t45 3.5t45 -3.5t26.5 -13t12.5 -27t3 -46.5q0 -32 -3 -51.5t-12.5 -30t-26.5 -14t-45 -3.5z" />
    <glyph glyph-name="ellipsis" unicode="&#x2026;" horiz-adv-x="861" 
d="M145 -6q-28 0 -45 3.5t-26.5 14t-12.5 30t-3 51.5q0 29 3 46.5t12.5 27t26.5 13t45 3.5t45 -3.5t26 -13t12 -27t3 -46.5q0 -32 -3 -51.5t-12 -30t-26 -14t-45 -3.5zM432 -6q-28 0 -45.5 3.5t-26.5 14t-12 30t-3 51.5q0 29 3 46.5t12 27t26.5 13t45.5 3.5t45 -3.5t26 -13
t12 -27t3 -46.5q0 -32 -3 -51.5t-12 -30t-26 -14t-45 -3.5zM716 -6q-28 0 -45 3.5t-26.5 14t-12.5 30t-3 51.5q0 29 3 46.5t12.5 27t26.5 13t45 3.5t45 -3.5t26.5 -13t12.5 -27t3 -46.5q0 -32 -3 -51.5t-12.5 -30t-26.5 -14t-45 -3.5z" />
    <glyph glyph-name="dagger" horiz-adv-x="441" 
d="M302 0h-163v425h-115v137h115v166h163v-166h115v-137h-115v-425z" />
    <glyph glyph-name="dagger" unicode="&#x2020;" horiz-adv-x="441" 
d="M302 0h-163v425h-115v137h115v166h163v-166h115v-137h-115v-425z" />
    <glyph glyph-name="perthousand" horiz-adv-x="1084" 
d="M899 236v-129q0 -33 23 -33q13 0 17.5 7t4.5 26v129q0 19 -4.5 26.5t-17.5 7.5q-23 0 -23 -34zM786 119v105q0 70 29 97t107 27t107.5 -26.5t29.5 -97.5v-105q0 -71 -30 -98t-107 -27q-78 0 -107 27t-29 98zM567 236v-129q0 -19 5 -26t18 -7q12 0 17 7t5 26v129
q0 34 -22 34q-23 0 -23 -34zM453 119v105q0 70 29.5 97t107.5 27t107.5 -26.5t29.5 -97.5v-105q0 -71 -30 -98t-107 -27q-78 0 -107.5 27t-29.5 98zM139 620v-129q0 -19 4.5 -26t16.5 -7q23 0 23 33v129q0 20 -5.5 27.5t-17.5 7.5q-11 0 -16 -7.5t-5 -27.5zM24 503v106
q0 71 30 98t106 27q78 0 107.5 -27t29.5 -98v-106q0 -71 -29.5 -97.5t-107.5 -26.5q-76 0 -106 27t-30 97zM500 734h130l-378 -734h-131z" />
    <glyph glyph-name="perthousand" unicode="&#x2030;" horiz-adv-x="1084" 
d="M899 236v-129q0 -33 23 -33q13 0 17.5 7t4.5 26v129q0 19 -4.5 26.5t-17.5 7.5q-23 0 -23 -34zM786 119v105q0 70 29 97t107 27t107.5 -26.5t29.5 -97.5v-105q0 -71 -30 -98t-107 -27q-78 0 -107 27t-29 98zM567 236v-129q0 -19 5 -26t18 -7q12 0 17 7t5 26v129
q0 34 -22 34q-23 0 -23 -34zM453 119v105q0 70 29.5 97t107.5 27t107.5 -26.5t29.5 -97.5v-105q0 -71 -30 -98t-107 -27q-78 0 -107.5 27t-29.5 98zM139 620v-129q0 -19 4.5 -26t16.5 -7q23 0 23 33v129q0 20 -5.5 27.5t-17.5 7.5q-11 0 -16 -7.5t-5 -27.5zM24 503v106
q0 71 30 98t106 27q78 0 107.5 -27t29.5 -98v-106q0 -71 -29.5 -97.5t-107.5 -26.5q-76 0 -106 27t-30 97zM500 734h130l-378 -734h-131z" />
    <glyph glyph-name="quoteleft" horiz-adv-x="297" 
d="M211 743v-45q-12 0 -26 -15t-14 -31q20 0 32.5 -3.5t20 -14t10 -29.5t2.5 -51q0 -29 -3 -47t-12.5 -27.5t-26.5 -13t-45 -3.5t-45 3.5t-26.5 15t-12.5 32t-3 54.5q0 32 12 63t32.5 56t47.5 40.5t57 15.5z" />
    <glyph glyph-name="quoteleft" unicode="&#x2018;" horiz-adv-x="297" 
d="M211 743v-45q-12 0 -26 -15t-14 -31q20 0 32.5 -3.5t20 -14t10 -29.5t2.5 -51q0 -29 -3 -47t-12.5 -27.5t-26.5 -13t-45 -3.5t-45 3.5t-26.5 15t-12.5 32t-3 54.5q0 32 12 63t32.5 56t47.5 40.5t57 15.5z" />
    <glyph glyph-name="quoteright" horiz-adv-x="297" 
d="M88 463v45q11 0 25.5 15t14.5 31q-40 0 -53 17.5t-13 80.5q0 29 3 47t12.5 27.5t26.5 13t45 3.5t45 -3.5t26.5 -15t12.5 -32t3 -54.5q0 -32 -12 -63t-32.5 -56t-47.5 -40.5t-56 -15.5z" />
    <glyph glyph-name="quoteright" unicode="&#x2019;" horiz-adv-x="297" 
d="M88 463v45q11 0 25.5 15t14.5 31q-40 0 -53 17.5t-13 80.5q0 29 3 47t12.5 27.5t26.5 13t45 3.5t45 -3.5t26.5 -15t12.5 -32t3 -54.5q0 -32 -12 -63t-32.5 -56t-47.5 -40.5t-56 -15.5z" />
    <glyph glyph-name="quotedblleft" horiz-adv-x="454" 
d="M398 743v-45q-11 0 -25.5 -15t-14.5 -31q40 0 53 -17.5t13 -80.5q0 -29 -3 -47t-12.5 -27.5t-26.5 -13t-45 -3.5t-45 3.5t-26.5 15t-12.5 32t-3 54.5q0 32 12 63t32.5 56t47.5 40.5t56 15.5zM179 743v-45q-11 0 -25 -15t-14 -31q20 0 32.5 -3.5t20 -14t10 -29.5t2.5 -51
q0 -29 -3 -47t-12.5 -27.5t-26.5 -13t-45 -3.5t-45 3.5t-26.5 15t-12.5 32t-3 54.5q0 32 12.5 63t33 56t47 40.5t55.5 15.5z" />
    <glyph glyph-name="quotedblleft" unicode="&#x201c;" horiz-adv-x="454" 
d="M398 743v-45q-11 0 -25.5 -15t-14.5 -31q40 0 53 -17.5t13 -80.5q0 -29 -3 -47t-12.5 -27.5t-26.5 -13t-45 -3.5t-45 3.5t-26.5 15t-12.5 32t-3 54.5q0 32 12 63t32.5 56t47.5 40.5t56 15.5zM179 743v-45q-11 0 -25 -15t-14 -31q20 0 32.5 -3.5t20 -14t10 -29.5t2.5 -51
q0 -29 -3 -47t-12.5 -27.5t-26.5 -13t-45 -3.5t-45 3.5t-26.5 15t-12.5 32t-3 54.5q0 32 12.5 63t33 56t47 40.5t55.5 15.5z" />
    <glyph glyph-name="quotedblright" horiz-adv-x="454" 
d="M57 463v45q11 0 25 15t14 31q-20 0 -32.5 3.5t-20 14t-10 29.5t-2.5 51q0 29 3 47t12.5 27.5t26.5 13t45 3.5t45 -3.5t26.5 -15t12.5 -32t3 -54.5q0 -32 -12.5 -63t-33 -56t-47 -40.5t-55.5 -15.5zM275 463v45q12 0 26 15t14 31q-20 0 -32.5 3.5t-20 14t-10 29.5t-2.5 51
q0 29 3 47t12.5 27.5t26.5 13t45 3.5t45 -3.5t26.5 -15t12.5 -32t3 -54.5q0 -32 -12.5 -63t-33 -56t-47.5 -40.5t-56 -15.5z" />
    <glyph glyph-name="quotedblright" unicode="&#x201d;" horiz-adv-x="454" 
d="M57 463v45q11 0 25 15t14 31q-20 0 -32.5 3.5t-20 14t-10 29.5t-2.5 51q0 29 3 47t12.5 27.5t26.5 13t45 3.5t45 -3.5t26.5 -15t12.5 -32t3 -54.5q0 -32 -12.5 -63t-33 -56t-47 -40.5t-55.5 -15.5zM275 463v45q12 0 26 15t14 31q-20 0 -32.5 3.5t-20 14t-10 29.5t-2.5 51
q0 29 3 47t12.5 27.5t26.5 13t45 3.5t45 -3.5t26.5 -15t12.5 -32t3 -54.5q0 -32 -12.5 -63t-33 -56t-47.5 -40.5t-56 -15.5z" />
    <glyph glyph-name="bullet" horiz-adv-x="431" 
d="M88 365q0 59 37.5 99.5t89.5 40.5q26 0 49 -11t40.5 -30.5t28 -44.5t10.5 -54t-10.5 -55t-28 -45.5t-41 -31t-49.5 -11.5t-49 11.5t-40 31t-27 45.5t-10 55z" />
    <glyph glyph-name="bullet" unicode="&#x2022;" horiz-adv-x="431" 
d="M88 365q0 59 37.5 99.5t89.5 40.5q26 0 49 -11t40.5 -30.5t28 -44.5t10.5 -54t-10.5 -55t-28 -45.5t-41 -31t-49.5 -11.5t-49 11.5t-40 31t-27 45.5t-10 55z" />
    <glyph glyph-name="endash" horiz-adv-x="431" 
d="M436 253h-441v129h441v-129z" />
    <glyph glyph-name="endash" unicode="&#x2013;" horiz-adv-x="431" 
d="M436 253h-441v129h441v-129z" />
    <glyph glyph-name="emdash" horiz-adv-x="861" 
d="M867 253h-872v129h872v-129z" />
    <glyph glyph-name="emdash" unicode="&#x2014;" horiz-adv-x="861" 
d="M867 253h-872v129h872v-129z" />
    <glyph glyph-name="trademark" horiz-adv-x="793" 
d="M44 728h268v-67h-93v-258h-83v258h-92v67zM372 728h109l69 -197l67 197h110v-325h-75v243l-85 -243h-34l-87 243v-243h-74v325z" />
    <glyph glyph-name="trademark" unicode="&#x2122;" horiz-adv-x="793" 
d="M44 728h268v-67h-93v-258h-83v258h-92v67zM372 728h109l69 -197l67 197h110v-325h-75v243l-85 -243h-34l-87 243v-243h-74v325z" />
    <glyph glyph-name="currency" unicode="&#xa4;" 
d="M388 335q0 43 -31 74t-73 31q-43 0 -75 -31t-32 -74t31.5 -74t75.5 -31q42 0 73 31.5t31 73.5zM95 580l85 -87q46 30 104 30q60 0 101 -30l85 87l58 -59l-86 -87q30 -46 30 -99q0 -26 -8 -50.5t-22 -47.5l86 -87l-58 -60l-85 88q-23 -15 -48 -23t-53 -8q-30 0 -55 8
t-49 23l-85 -88l-58 60l86 87q-29 44 -29 100q0 51 29 97l-86 87z" />
    <glyph glyph-name="brokenbar" unicode="&#xa6;" horiz-adv-x="479" 
d="M306 -168h-134v405h134v-405zM306 356h-134v405h134v-405zM1 -210h-1v1h1v-1z" />
    <glyph glyph-name="section" unicode="&#xa7;" 
d="M202 347q0 -12 5 -22t20 -20.5t43 -24t73 -33.5q13 12 13 39q0 26 -23 45t-69 37q-15 5 -28.5 10.5t-21.5 5.5q-5 0 -8.5 -7t-3.5 -30zM426 186q28 -25 39.5 -56t11.5 -74q0 -74 -51 -119.5t-142 -45.5q-50 0 -101.5 18.5t-89.5 49.5v117h161v-11q0 -30 10.5 -44.5
t25.5 -14.5q12 0 19.5 11t7.5 37q0 11 -3.5 20.5t-16 19.5t-38.5 22.5t-71 30.5q-68 28 -97 68t-29 93t19 86.5t59 53.5q-54 48 -54 126q0 77 51.5 123t143.5 46q49 0 100 -17.5t91 -49.5v-117h-162v10q0 30 -10 44.5t-24 14.5q-29 0 -29 -49q0 -17 13 -30.5t32 -24.5
t41.5 -20t41.5 -17q69 -29 97.5 -67.5t28.5 -94.5q0 -52 -17.5 -85.5t-57.5 -53.5z" />
    <glyph glyph-name="afii10023" unicode="&#xa8;" horiz-adv-x="582" 
d="M545 0h-508v129q27 0 27 67v338q0 67 -27 67v127h508v-245h-188v25q0 42 -13 56.5t-47 14.5h-23v-134h114v-141h-114v-155h23q33 0 46.5 18.5t13.5 71.5v27h188v-266zM208 761q-46 0 -59.5 14t-13.5 64q0 23 2.5 37.5t10.5 22t22.5 10t37.5 2.5t37.5 -2.5t22 -10t10 -22
t2.5 -37.5q0 -50 -13 -64t-59 -14zM394 761q-46 0 -59.5 14t-13.5 64q0 23 2.5 37.5t10.5 22t22.5 10t37.5 2.5t37.5 -2.5t22 -10t10 -22t2.5 -37.5q0 -50 -13 -64t-59 -14z" />
    <glyph glyph-name="afii10023" unicode="&#x401;" horiz-adv-x="582" 
d="M545 0h-508v129q27 0 27 67v338q0 67 -27 67v127h508v-245h-188v25q0 42 -13 56.5t-47 14.5h-23v-134h114v-141h-114v-155h23q33 0 46.5 18.5t13.5 71.5v27h188v-266zM208 761q-46 0 -59.5 14t-13.5 64q0 23 2.5 37.5t10.5 22t22.5 10t37.5 2.5t37.5 -2.5t22 -10t10 -22
t2.5 -37.5q0 -50 -13 -64t-59 -14zM394 761q-46 0 -59.5 14t-13.5 64q0 23 2.5 37.5t10.5 22t22.5 10t37.5 2.5t37.5 -2.5t22 -10t10 -22t2.5 -37.5q0 -50 -13 -64t-59 -14z" />
    <glyph glyph-name="copyright" unicode="&#xa9;" horiz-adv-x="703" 
d="M87 498v-215q0 -67 14 -112t45.5 -72t82 -38t123.5 -11q72 0 122.5 11t82 38t45.5 72t14 112v215q0 68 -14 112.5t-45.5 71.5t-82 38t-122.5 11q-73 0 -123.5 -11t-82 -38t-45.5 -71.5t-14 -112.5zM38 283v215q0 153 78 218t236 65t235.5 -65t77.5 -218v-215
q0 -152 -77.5 -217.5t-235.5 -65.5t-236 65t-78 218zM490 559v-118h-115v33q0 22 -4.5 31.5t-17.5 9.5q-12 0 -17.5 -9t-5.5 -32v-177q0 -23 5.5 -32t17.5 -9q13 0 17.5 9t4.5 32v53h115v-142q-51 -45 -142 -45q-76 0 -106 34t-30 119v138q0 81 29.5 116.5t102.5 35.5
q43 0 80.5 -12t65.5 -35z" />
    <glyph glyph-name="guillemotleft" unicode="&#xab;" horiz-adv-x="454" 
d="M236 96h-125l-75 181l75 181h125l-74 -181zM418 96h-124l-74 181l74 181h124l-72 -181z" />
    <glyph glyph-name="logicalnot" unicode="&#xac;" horiz-adv-x="816" 
d="M122 415h573v-239h-130v112h-443v127z" />
    <glyph glyph-name="registered" unicode="&#xae;" horiz-adv-x="859" 
d="M102 428v-238q0 -75 17.5 -125t56.5 -80t101.5 -42.5t152.5 -12.5q89 0 151 12.5t101 42.5t56.5 80t17.5 125v238q0 75 -17.5 125t-56.5 80t-101 42.5t-151 12.5q-90 0 -152.5 -12.5t-101.5 -42.5t-56.5 -80t-17.5 -125zM42 190v238q0 170 96.5 242.5t291.5 72.5
q194 0 290 -72.5t96 -242.5v-238q0 -169 -96 -241.5t-290 -72.5q-195 0 -291.5 72t-96.5 242zM416 441v-96h15q25 0 34 10.5t9 38.5t-10 37.5t-39 9.5h-9zM416 252v-57q0 -25 3.5 -33t15.5 -13v-82h-182v82q9 7 13.5 16.5t4.5 29.5v219q0 20 -4.5 29t-13.5 14v82h206
q39 0 69.5 -5t52 -19t32.5 -38.5t11 -64.5q0 -45 -16.5 -71t-51.5 -38q38 -11 48.5 -30.5t10.5 -62.5v-6q0 -43 19 -55v-82h-157q-5 18 -7.5 50.5t-2.5 71.5t-9 51t-33 12h-9z" />
    <glyph glyph-name="degree" unicode="&#xb0;" horiz-adv-x="339" 
d="M118 590q0 -22 15 -39t36 -17q23 0 38 17t15 39t-15.5 38.5t-36.5 16.5q-22 0 -37 -16.5t-15 -38.5zM169 743q30 0 57 -12t47 -33t32 -49.5t12 -60.5t-11.5 -60t-31.5 -48.5t-47 -32.5t-57 -12t-57 12t-47 33t-32 49t-12 59q0 32 11.5 60.5t31.5 49.5t47 33t57 12z" />
    <glyph glyph-name="plusminus" unicode="&#xb1;" horiz-adv-x="816" 
d="M122 111h573v-130h-573v130zM341 604h134v-148h220v-131h-220v-147h-134v147h-219v131h219v148z" />
    <glyph glyph-name="mu" unicode="&#xb5;" horiz-adv-x="479" 
d="M57 510h109v-203q0 -113 17 -162t63 -49q40 0 55 42t15 132v240h107v-380q0 -16 2 -35.5t5 -38t6.5 -33.5t6.5 -23h-108l-12 55q-22 -70 -71 -70q-50 0 -86 54v-153h-109v624z" />
    <glyph glyph-name="paragraph" unicode="&#xb6;" horiz-adv-x="479" 
d="M415 691v-52h-42v-639h-56v639h-60v-639h-57v367q-64 2 -100.5 47t-36.5 114q0 72 39.5 117.5t107.5 45.5h205z" />
    <glyph glyph-name="periodcentered" unicode="&#xb7;" horiz-adv-x="297" 
d="M149 235q-28 0 -45 3.5t-26.5 14t-12.5 29.5t-3 51q0 29 3 46.5t12.5 27.5t26.5 13t45 3t45 -3t26.5 -13t12.5 -27.5t3 -46.5q0 -32 -3 -51t-12.5 -29.5t-26.5 -14t-45 -3.5z" />
    <glyph glyph-name="periodcentered" unicode="&#x2219;" horiz-adv-x="297" 
d="M149 235q-28 0 -45 3.5t-26.5 14t-12.5 29.5t-3 51q0 29 3 46.5t12.5 27.5t26.5 13t45 3t45 -3t26.5 -13t12.5 -27.5t3 -46.5q0 -32 -3 -51t-12.5 -29.5t-26.5 -14t-45 -3.5z" />
    <glyph glyph-name="afii10071" unicode="&#xb8;" horiz-adv-x="525" 
d="M40 195v190q0 60 12.5 99.5t39.5 63.5t70 34t104 10q60 0 101.5 -10t68 -34t38 -63.5t11.5 -99.5v-134h-259v-56q0 -49 9.5 -64.5t30.5 -15.5q19 0 29.5 15.5t10.5 64.5h179v-125q-38 -44 -95.5 -62.5t-123.5 -18.5q-61 0 -104 10t-70 33.5t-39.5 63t-12.5 99.5zM226 385
v-20h80v20q0 50 -10.5 65t-29.5 15q-21 0 -30.5 -15t-9.5 -65zM173 646q-23 0 -37.5 3t-22.5 11t-10.5 24t-2.5 41q0 23 2.5 37t10.5 21.5t22.5 10t37.5 2.5t37 -2.5t21.5 -10t10 -21.5t2.5 -37q0 -25 -2.5 -41t-10 -24t-21.5 -11t-37 -3zM359 646q-23 0 -37.5 3t-22.5 11
t-10.5 24t-2.5 41q0 23 2.5 37t10.5 21.5t22.5 10t37.5 2.5t37 -2.5t21.5 -10t10 -21.5t2.5 -37q0 -25 -2.5 -41t-10 -24t-21.5 -11t-37 -3z" />
    <glyph glyph-name="afii10071" unicode="&#x451;" horiz-adv-x="525" 
d="M40 195v190q0 60 12.5 99.5t39.5 63.5t70 34t104 10q60 0 101.5 -10t68 -34t38 -63.5t11.5 -99.5v-134h-259v-56q0 -49 9.5 -64.5t30.5 -15.5q19 0 29.5 15.5t10.5 64.5h179v-125q-38 -44 -95.5 -62.5t-123.5 -18.5q-61 0 -104 10t-70 33.5t-39.5 63t-12.5 99.5zM226 385
v-20h80v20q0 50 -10.5 65t-29.5 15q-21 0 -30.5 -15t-9.5 -65zM173 646q-23 0 -37.5 3t-22.5 11t-10.5 24t-2.5 41q0 23 2.5 37t10.5 21.5t22.5 10t37.5 2.5t37 -2.5t21.5 -10t10 -21.5t2.5 -37q0 -25 -2.5 -41t-10 -24t-21.5 -11t-37 -3zM359 646q-23 0 -37.5 3t-22.5 11
t-10.5 24t-2.5 41q0 23 2.5 37t10.5 21.5t22.5 10t37.5 2.5t37 -2.5t21.5 -10t10 -21.5t2.5 -37q0 -25 -2.5 -41t-10 -24t-21.5 -11t-37 -3z" />
    <glyph glyph-name="afii61352" unicode="&#xb9;" horiz-adv-x="951" 
d="M219 347v-151q0 -35 5.5 -48t18.5 -19v-129h-210v129q13 8 19 22.5t6 44.5v338q0 30 -6 45t-19 22v127h226l125 -368v174q0 34 -6.5 47t-22.5 20v127h214v-127q-13 -7 -18.5 -21t-5.5 -46v-534h-199zM917 433v-113q0 -77 -34.5 -106.5t-125.5 -29.5t-125.5 29.5
t-34.5 106.5v113q0 77 34.5 107t125.5 30t125.5 -30t34.5 -107zM784 314v126q0 24 -6 33.5t-21 9.5q-14 0 -19.5 -9.5t-5.5 -33.5v-126q0 -26 5.5 -36t19.5 -10q27 0 27 46zM917 0h-320v129h320v-129z" />
    <glyph glyph-name="afii61352" unicode="&#x2116;" horiz-adv-x="951" 
d="M219 347v-151q0 -35 5.5 -48t18.5 -19v-129h-210v129q13 8 19 22.5t6 44.5v338q0 30 -6 45t-19 22v127h226l125 -368v174q0 34 -6.5 47t-22.5 20v127h214v-127q-13 -7 -18.5 -21t-5.5 -46v-534h-199zM917 433v-113q0 -77 -34.5 -106.5t-125.5 -29.5t-125.5 29.5
t-34.5 106.5v113q0 77 34.5 107t125.5 30t125.5 -30t34.5 -107zM784 314v126q0 24 -6 33.5t-21 9.5q-14 0 -19.5 -9.5t-5.5 -33.5v-126q0 -26 5.5 -36t19.5 -10q27 0 27 46zM917 0h-320v129h320v-129z" />
    <glyph glyph-name="guillemotright" unicode="&#xbb;" horiz-adv-x="454" 
d="M219 96l73 181l-73 181h125l74 -181l-74 -181h-125zM36 96l73 181l-73 181h124l75 -181l-75 -181h-124z" />
    <glyph glyph-name="afii10017" unicode="&#xc0;" horiz-adv-x="589" 
d="M107 728h375v-129q-16 0 -16 -24q0 -6 1 -14.5t4 -19.5l80 -351q8 -38 14 -49.5t16 -11.5v-129h-250v129q8 4 14 12.5t6 23.5q0 4 -1 12.5t-3 24.5h-110q-4 -29 -4 -37q0 -28 20 -36v-129h-246v129q11 0 17 11.5t13 48.5l80 351q3 10 4 19t1 15q0 14 -4.5 19.5t-10.5 5.5
v129zM255 328h74l-37 267h-1z" />
    <glyph glyph-name="afii10017" unicode="&#x410;" horiz-adv-x="589" 
d="M107 728h375v-129q-16 0 -16 -24q0 -6 1 -14.5t4 -19.5l80 -351q8 -38 14 -49.5t16 -11.5v-129h-250v129q8 4 14 12.5t6 23.5q0 4 -1 12.5t-3 24.5h-110q-4 -29 -4 -37q0 -28 20 -36v-129h-246v129q11 0 17 11.5t13 48.5l80 351q3 10 4 19t1 15q0 14 -4.5 19.5t-10.5 5.5
v129zM255 328h74l-37 267h-1z" />
    <glyph glyph-name="afii10018" unicode="&#xc1;" horiz-adv-x="604" 
d="M39 728h513v-241h-186v20q0 40 -10 56.5t-45 16.5h-41v-134h89q103 0 161.5 -54t58.5 -166q0 -123 -67 -174.5t-185 -51.5h-288v129q25 0 25 67v338q0 34 -5.5 49.5t-19.5 15.5v129zM270 310v-158q5 -1 21 -1q72 0 72 81q0 78 -81 78h-12z" />
    <glyph glyph-name="afii10018" unicode="&#x411;" horiz-adv-x="604" 
d="M39 728h513v-241h-186v20q0 40 -10 56.5t-45 16.5h-41v-134h89q103 0 161.5 -54t58.5 -166q0 -123 -67 -174.5t-185 -51.5h-288v129q25 0 25 67v338q0 34 -5.5 49.5t-19.5 15.5v129zM270 310v-158q5 -1 21 -1q72 0 72 81q0 78 -81 78h-12z" />
    <glyph glyph-name="afii10019" unicode="&#xc2;" horiz-adv-x="604" 
d="M271 579v-137h21q68 0 68 69q0 68 -62 68h-27zM271 310v-161h21q71 0 71 83q0 78 -80 78h-12zM38 0v129q27 0 27 67v336q0 67 -27 67v129h301q229 0 229 -189q0 -64 -30 -100.5t-67 -55.5q54 -19 81.5 -63.5t27.5 -108.5q0 -107 -60.5 -159t-178.5 -52h-303z" />
    <glyph glyph-name="afii10019" unicode="&#x412;" horiz-adv-x="604" 
d="M271 579v-137h21q68 0 68 69q0 68 -62 68h-27zM271 310v-161h21q71 0 71 83q0 78 -80 78h-12zM38 0v129q27 0 27 67v336q0 67 -27 67v129h301q229 0 229 -189q0 -64 -30 -100.5t-67 -55.5q54 -19 81.5 -63.5t27.5 -108.5q0 -107 -60.5 -159t-178.5 -52h-303z" />
    <glyph glyph-name="afii10020" unicode="&#xc3;" horiz-adv-x="544" 
d="M307 0h-268v129q14 0 19.5 16t5.5 51v338q0 34 -5.5 49.5t-19.5 15.5v129h475v-281h-168v56q0 46 -11.5 61t-45.5 15h-15v-383q0 -67 33 -67v-129z" />
    <glyph glyph-name="afii10020" unicode="&#x413;" horiz-adv-x="544" 
d="M307 0h-268v129q14 0 19.5 16t5.5 51v338q0 34 -5.5 49.5t-19.5 15.5v129h475v-281h-168v56q0 46 -11.5 61t-45.5 15h-15v-383q0 -67 33 -67v-129z" />
    <glyph glyph-name="afii10021" unicode="&#xc4;" horiz-adv-x="615" 
d="M191 -106h-185v235q28 15 45 41.5t17 77.5v284q0 35 -8 51t-28 16v129h545v-129q-14 0 -19.5 -16t-5.5 -51v-338q0 -31 9 -46t35 -19v-235h-188v33q0 40 -10 56.5t-45 16.5h-107q-35 0 -45 -16.5t-10 -56.5v-33zM342 149v430h-72v-356q0 -26 -6 -46t-10 -28h88z" />
    <glyph glyph-name="afii10021" unicode="&#x414;" horiz-adv-x="615" 
d="M191 -106h-185v235q28 15 45 41.5t17 77.5v284q0 35 -8 51t-28 16v129h545v-129q-14 0 -19.5 -16t-5.5 -51v-338q0 -31 9 -46t35 -19v-235h-188v33q0 40 -10 56.5t-45 16.5h-107q-35 0 -45 -16.5t-10 -56.5v-33zM342 149v430h-72v-356q0 -26 -6 -46t-10 -28h88z" />
    <glyph glyph-name="afii10022" unicode="&#xc5;" horiz-adv-x="582" 
d="M545 0h-508v129q27 0 27 67v338q0 67 -27 67v127h508v-245h-188v25q0 42 -13 56.5t-47 14.5h-23v-134h114v-141h-114v-155h23q33 0 46.5 18.5t13.5 71.5v27h188v-266z" />
    <glyph glyph-name="afii10022" unicode="&#x415;" horiz-adv-x="582" 
d="M545 0h-508v129q27 0 27 67v338q0 67 -27 67v127h508v-245h-188v25q0 42 -13 56.5t-47 14.5h-23v-134h114v-141h-114v-155h23q33 0 46.5 18.5t13.5 71.5v27h188v-266z" />
    <glyph glyph-name="afii10024" unicode="&#xc6;" horiz-adv-x="849" 
d="M551 0h-252v129q13 0 17.5 16t4.5 51v110h-10q-34 0 -47 -21.5t-13 -83.5q0 -71 -6.5 -126.5t-16.5 -74.5h-209v129q11 0 20.5 16t9.5 67q0 104 23.5 153.5t75.5 61.5l-86 143q-10 20 -21 24.5t-18 4.5v129h223v-104q0 -19 2.5 -36t10.5 -35l62 -121v102q0 34 -4.5 49.5
t-17.5 15.5v129h252v-129q-14 0 -19 -15.5t-5 -49.5v-102l63 121q8 18 11 35t3 36v104h222v-129q-8 0 -18 -5t-21 -24l-85 -143q46 -12 72.5 -61.5t26.5 -153.5q0 -51 8.5 -67t21.5 -16v-129h-210q-10 19 -16.5 74.5t-6.5 126.5q0 62 -13 83.5t-48 21.5h-10v-110
q0 -35 5 -51t19 -16v-129z" />
    <glyph glyph-name="afii10024" unicode="&#x416;" horiz-adv-x="849" 
d="M551 0h-252v129q13 0 17.5 16t4.5 51v110h-10q-34 0 -47 -21.5t-13 -83.5q0 -71 -6.5 -126.5t-16.5 -74.5h-209v129q11 0 20.5 16t9.5 67q0 104 23.5 153.5t75.5 61.5l-86 143q-10 20 -21 24.5t-18 4.5v129h223v-104q0 -19 2.5 -36t10.5 -35l62 -121v102q0 34 -4.5 49.5
t-17.5 15.5v129h252v-129q-14 0 -19 -15.5t-5 -49.5v-102l63 121q8 18 11 35t3 36v104h222v-129q-8 0 -18 -5t-21 -24l-85 -143q46 -12 72.5 -61.5t26.5 -153.5q0 -51 8.5 -67t21.5 -16v-129h-210q-10 19 -16.5 74.5t-6.5 126.5q0 62 -13 83.5t-48 21.5h-10v-110
q0 -35 5 -51t19 -16v-129z" />
    <glyph glyph-name="afii10025" unicode="&#xc7;" horiz-adv-x="580" 
d="M40 63v201h201v-44q0 -44 9.5 -60t31.5 -16q45 0 45 76q0 46 -17.5 65t-67.5 19h-32v142h32q50 0 65 16.5t15 61.5q0 62 -43 62q-38 0 -38 -64v-37h-201v175q100 82 254 82q239 0 239 -208q0 -119 -91 -149q96 -34 96 -171q0 -118 -59 -171.5t-189 -53.5q-80 0 -141.5 18
t-108.5 56z" />
    <glyph glyph-name="afii10025" unicode="&#x417;" horiz-adv-x="580" 
d="M40 63v201h201v-44q0 -44 9.5 -60t31.5 -16q45 0 45 76q0 46 -17.5 65t-67.5 19h-32v142h32q50 0 65 16.5t15 61.5q0 62 -43 62q-38 0 -38 -64v-37h-201v175q100 82 254 82q239 0 239 -208q0 -119 -91 -149q96 -34 96 -171q0 -118 -59 -171.5t-189 -53.5q-80 0 -141.5 18
t-108.5 56z" />
    <glyph glyph-name="afii10026" unicode="&#xc8;" horiz-adv-x="643" 
d="M298 0h-261v129q27 0 27 67v338q0 65 -27 65v129h261v-129q-13 0 -18.5 -10t-5.5 -42v-141l71 97q13 19 17.5 31t4.5 28q0 21 -4.5 29t-17.5 8v129h261v-129q-27 0 -27 -65v-338q0 -35 6 -51t21 -16v-129h-261v129q13 0 17.5 14t4.5 53v137l-69 -103q-16 -23 -20 -31.5
t-4 -19.5q0 -23 5 -36.5t19 -13.5v-129z" />
    <glyph glyph-name="afii10026" unicode="&#x418;" horiz-adv-x="643" 
d="M298 0h-261v129q27 0 27 67v338q0 65 -27 65v129h261v-129q-13 0 -18.5 -10t-5.5 -42v-141l71 97q13 19 17.5 31t4.5 28q0 21 -4.5 29t-17.5 8v129h261v-129q-27 0 -27 -65v-338q0 -35 6 -51t21 -16v-129h-261v129q13 0 17.5 14t4.5 53v137l-69 -103q-16 -23 -20 -31.5
t-4 -19.5q0 -23 5 -36.5t19 -13.5v-129z" />
    <glyph glyph-name="afii10027" unicode="&#xc9;" horiz-adv-x="643" 
d="M298 0h-261v129q27 0 27 67v338q0 65 -27 65v129h261v-129q-13 0 -18.5 -10t-5.5 -42v-141l71 97q13 19 17.5 31t4.5 28q0 21 -4.5 29t-17.5 8v129h261v-129q-27 0 -27 -65v-338q0 -35 6 -51t21 -16v-129h-261v129q13 0 17.5 14t4.5 53v137l-69 -103q-16 -23 -20 -31.5
t-4 -19.5q0 -23 5 -36.5t19 -13.5v-129zM178 874v15h94v-13q0 -17 13.5 -29.5t35.5 -12.5q21 0 36 12.5t15 29.5v13h93v-15q0 -35 -11.5 -57t-31 -34.5t-45.5 -17t-56 -4.5t-56 4.5t-45.5 17t-30.5 34.5t-11 57z" />
    <glyph glyph-name="afii10027" unicode="&#x419;" horiz-adv-x="643" 
d="M298 0h-261v129q27 0 27 67v338q0 65 -27 65v129h261v-129q-13 0 -18.5 -10t-5.5 -42v-141l71 97q13 19 17.5 31t4.5 28q0 21 -4.5 29t-17.5 8v129h261v-129q-27 0 -27 -65v-338q0 -35 6 -51t21 -16v-129h-261v129q13 0 17.5 14t4.5 53v137l-69 -103q-16 -23 -20 -31.5
t-4 -19.5q0 -23 5 -36.5t19 -13.5v-129zM178 874v15h94v-13q0 -17 13.5 -29.5t35.5 -12.5q21 0 36 12.5t15 29.5v13h93v-15q0 -35 -11.5 -57t-31 -34.5t-45.5 -17t-56 -4.5t-56 4.5t-45.5 17t-30.5 34.5t-11 57z" />
    <glyph glyph-name="afii10028" unicode="&#xca;" horiz-adv-x="610" 
d="M298 0h-261v129q27 0 27 67v338q0 65 -27 65v129h261v-129q-15 0 -20 -15.5t-5 -49.5v-102l65 121q7 19 10.5 35.5t3.5 35.5v104h232v-129q-8 0 -19 -3.5t-21 -25.5l-90 -143q54 -12 79 -61.5t25 -153.5q0 -51 9 -67t22 -16v-129h-219q-10 19 -17 74.5t-7 126.5
q0 62 -13.5 83.5t-48.5 21.5h-11v-110q0 -35 5 -51t20 -16v-129z" />
    <glyph glyph-name="afii10028" unicode="&#x41a;" horiz-adv-x="610" 
d="M298 0h-261v129q27 0 27 67v338q0 65 -27 65v129h261v-129q-15 0 -20 -15.5t-5 -49.5v-102l65 121q7 19 10.5 35.5t3.5 35.5v104h232v-129q-8 0 -19 -3.5t-21 -25.5l-90 -143q54 -12 79 -61.5t25 -153.5q0 -51 9 -67t22 -16v-129h-219q-10 19 -17 74.5t-7 126.5
q0 62 -13.5 83.5t-48.5 21.5h-11v-110q0 -35 5 -51t20 -16v-129z" />
    <glyph glyph-name="afii10029" unicode="&#xcb;" horiz-adv-x="631" 
d="M40 728h551v-129q-25 0 -25 -65v-338q0 -35 6 -51t19 -16v-129h-257v129q22 0 22 67v383h-71v-384q0 -107 -40.5 -155.5t-131.5 -48.5q-54 0 -103 12v126q39 0 56.5 19.5t17.5 63.5v322q0 34 -9 49.5t-35 15.5v129z" />
    <glyph glyph-name="afii10029" unicode="&#x41b;" horiz-adv-x="631" 
d="M40 728h551v-129q-25 0 -25 -65v-338q0 -35 6 -51t19 -16v-129h-257v129q22 0 22 67v383h-71v-384q0 -107 -40.5 -155.5t-131.5 -48.5q-54 0 -103 12v126q39 0 56.5 19.5t17.5 63.5v322q0 34 -9 49.5t-35 15.5v129z" />
    <glyph glyph-name="afii10030" unicode="&#xcc;" horiz-adv-x="743" 
d="M282 0h-244v129q27 0 27 67v338q0 65 -27 65v129h263l71 -314l64 314h270v-129q-27 0 -27 -65v-338q0 -67 27 -67v-129h-244v129q14 0 18 16t4 51v218l-77 -296h-70l-78 296v-218q0 -35 5 -51t18 -16v-129z" />
    <glyph glyph-name="afii10030" unicode="&#x41c;" horiz-adv-x="743" 
d="M282 0h-244v129q27 0 27 67v338q0 65 -27 65v129h263l71 -314l64 314h270v-129q-27 0 -27 -65v-338q0 -67 27 -67v-129h-244v129q14 0 18 16t4 51v218l-77 -296h-70l-78 296v-218q0 -35 5 -51t18 -16v-129z" />
    <glyph glyph-name="afii10031" unicode="&#xcd;" horiz-adv-x="640" 
d="M298 0h-261v129q27 0 27 67v338q0 65 -27 65v129h261v-129q-24 0 -24 -65v-87h91v87q0 34 -4.5 49.5t-18.5 15.5v129h261v-129q-27 0 -27 -65v-338q0 -67 27 -67v-129h-261v129q14 0 18.5 16t4.5 51v110h-91v-110q0 -35 5 -51t19 -16v-129z" />
    <glyph glyph-name="afii10031" unicode="&#x41d;" horiz-adv-x="640" 
d="M298 0h-261v129q27 0 27 67v338q0 65 -27 65v129h261v-129q-24 0 -24 -65v-87h91v87q0 34 -4.5 49.5t-18.5 15.5v129h261v-129q-27 0 -27 -65v-338q0 -67 27 -67v-129h-261v129q14 0 18.5 16t4.5 51v110h-91v-110q0 -35 5 -51t19 -16v-129z" />
    <glyph glyph-name="afii10032" unicode="&#xce;" horiz-adv-x="591" 
d="M338 213v304q0 39 -9.5 55t-31.5 16q-23 0 -33 -15.5t-10 -55.5v-304q0 -39 10 -55t33 -16q22 0 31.5 16.5t9.5 54.5zM43 245v237q0 75 13.5 125t44 80.5t79 43t117.5 12.5t117 -12.5t78 -43t43.5 -80.5t13.5 -125v-237q0 -75 -13.5 -125t-43.5 -80t-78 -42.5t-117 -12.5
t-117.5 12.5t-79 42.5t-44 80t-13.5 125z" />
    <glyph glyph-name="afii10032" unicode="&#x41e;" horiz-adv-x="591" 
d="M338 213v304q0 39 -9.5 55t-31.5 16q-23 0 -33 -15.5t-10 -55.5v-304q0 -39 10 -55t33 -16q22 0 31.5 16.5t9.5 54.5zM43 245v237q0 75 13.5 125t44 80.5t79 43t117.5 12.5t117 -12.5t78 -43t43.5 -80.5t13.5 -125v-237q0 -75 -13.5 -125t-43.5 -80t-78 -42.5t-117 -12.5
t-117.5 12.5t-79 42.5t-44 80t-13.5 125z" />
    <glyph glyph-name="afii10033" unicode="&#xcf;" horiz-adv-x="631" 
d="M298 0h-261v129q27 0 27 67v338q0 65 -27 65v129h556v-129q-26 0 -26 -65v-338q0 -67 26 -67v-129h-259v129q13 0 18 16t5 51v383h-83v-383q0 -35 5 -51t19 -16v-129z" />
    <glyph glyph-name="afii10033" unicode="&#x41f;" horiz-adv-x="631" 
d="M298 0h-261v129q27 0 27 67v338q0 65 -27 65v129h556v-129q-26 0 -26 -65v-338q0 -67 26 -67v-129h-259v129q13 0 18 16t5 51v383h-83v-383q0 -35 5 -51t19 -16v-129z" />
    <glyph glyph-name="afii10034" unicode="&#xd0;" horiz-adv-x="590" 
d="M271 579v-218h13q40 0 55.5 16t15.5 58v67q0 45 -15.5 61t-55.5 16h-13zM306 0h-269v129q27 0 27 67v336q0 67 -27 67v129h291q64 0 108.5 -14t72.5 -46t40.5 -83.5t12.5 -126.5q0 -57 -10 -103t-34 -79t-64 -50.5t-99 -17.5q-20 0 -43 4t-41 13v-29q0 -35 8 -51t27 -16
v-129z" />
    <glyph glyph-name="afii10034" unicode="&#x420;" horiz-adv-x="590" 
d="M271 579v-218h13q40 0 55.5 16t15.5 58v67q0 45 -15.5 61t-55.5 16h-13zM306 0h-269v129q27 0 27 67v336q0 67 -27 67v129h291q64 0 108.5 -14t72.5 -46t40.5 -83.5t12.5 -126.5q0 -57 -10 -103t-34 -79t-64 -50.5t-99 -17.5q-20 0 -43 4t-41 13v-29q0 -35 8 -51t27 -16
v-129z" />
    <glyph glyph-name="afii10035" unicode="&#xd1;" horiz-adv-x="577" 
d="M536 655v-207h-191v69q0 39 -12 55t-32 16q-23 0 -35 -15.5t-12 -55.5v-304q0 -39 12 -55t35 -16q21 0 32.5 16t11.5 55v83h191v-227q-45 -41 -101.5 -62.5t-139.5 -21.5q-133 0 -192.5 58t-59.5 202v237q0 140 61 200.5t191 60.5q76 0 133 -22.5t108 -65.5z" />
    <glyph glyph-name="afii10035" unicode="&#x421;" horiz-adv-x="577" 
d="M536 655v-207h-191v69q0 39 -12 55t-32 16q-23 0 -35 -15.5t-12 -55.5v-304q0 -39 12 -55t35 -16q21 0 32.5 16t11.5 55v83h191v-227q-45 -41 -101.5 -62.5t-139.5 -21.5q-133 0 -192.5 58t-59.5 202v237q0 140 61 200.5t191 60.5q76 0 133 -22.5t108 -65.5z" />
    <glyph glyph-name="afii10036" unicode="&#xd2;" horiz-adv-x="626" 
d="M16 728h595v-281h-144v84q0 48 -48 48v-383q0 -35 11 -51t25 -16v-129h-282v129q14 0 24.5 16t10.5 51v383q-50 0 -50 -48v-84h-142v281z" />
    <glyph glyph-name="afii10036" unicode="&#x422;" horiz-adv-x="626" 
d="M16 728h595v-281h-144v84q0 48 -48 48v-383q0 -35 11 -51t25 -16v-129h-282v129q14 0 24.5 16t10.5 51v383q-50 0 -50 -48v-84h-142v281z" />
    <glyph glyph-name="afii10037" unicode="&#xd3;" horiz-adv-x="557" 
d="M104 0v128q46 1 63.5 6.5t23.5 18.5l-157 419q-5 16 -10 21.5t-14 5.5v129h265v-129q-8 0 -13.5 -7t-5.5 -17q0 -6 1 -14.5t3 -16.5l43 -144l37 143q2 8 2.5 14.5t0.5 13.5q0 11 -4.5 19.5t-15.5 8.5v129h229v-129q-10 0 -15.5 -7t-11.5 -29l-126 -409q-27 -88 -74 -128
t-123 -40q-23 0 -48.5 3t-49.5 11z" />
    <glyph glyph-name="afii10037" unicode="&#x423;" horiz-adv-x="557" 
d="M104 0v128q46 1 63.5 6.5t23.5 18.5l-157 419q-5 16 -10 21.5t-14 5.5v129h265v-129q-8 0 -13.5 -7t-5.5 -17q0 -6 1 -14.5t3 -16.5l43 -144l37 143q2 8 2.5 14.5t0.5 13.5q0 11 -4.5 19.5t-15.5 8.5v129h229v-129q-10 0 -15.5 -7t-11.5 -29l-126 -409q-27 -88 -74 -128
t-123 -40q-23 0 -48.5 3t-49.5 11z" />
    <glyph glyph-name="afii10038" unicode="&#xd4;" horiz-adv-x="793" 
d="M499 457v-160q6 -2 14 -2q31 0 47 16.5t16 66.5q0 43 -13.5 61t-39.5 18h-24zM268 634v94h257v-94q-26 0 -26 -38v-8h54q113 0 166.5 -52.5t53.5 -157.5q0 -214 -219 -214q-29 0 -55 9v-28q0 -27 7.5 -35.5t27.5 -13.5v-96h-276v96q20 5 28 13.5t8 35.5v28q-26 -9 -56 -9
q-218 0 -218 214q0 105 53 157.5t166 52.5h55v8q0 17 -7 27.5t-19 10.5zM294 297v160h-24q-26 0 -39.5 -18t-13.5 -61q0 -50 15.5 -66.5t47.5 -16.5q6 0 14 2z" />
    <glyph glyph-name="afii10038" unicode="&#x424;" horiz-adv-x="793" 
d="M499 457v-160q6 -2 14 -2q31 0 47 16.5t16 66.5q0 43 -13.5 61t-39.5 18h-24zM268 634v94h257v-94q-26 0 -26 -38v-8h54q113 0 166.5 -52.5t53.5 -157.5q0 -214 -219 -214q-29 0 -55 9v-28q0 -27 7.5 -35.5t27.5 -13.5v-96h-276v96q20 5 28 13.5t8 35.5v28q-26 -9 -56 -9
q-218 0 -218 214q0 105 53 157.5t166 52.5h55v8q0 17 -7 27.5t-19 10.5zM294 297v160h-24q-26 0 -39.5 -18t-13.5 -61q0 -50 15.5 -66.5t47.5 -16.5q6 0 14 2z" />
    <glyph glyph-name="afii10039" unicode="&#xd5;" horiz-adv-x="568" 
d="M4 0v129q4 0 11.5 7t22.5 31l136 211l-117 188q-22 33 -38 33v129h243v-83q0 -19 2.5 -28.5t8.5 -26.5l10 -27h1l12 27q5 17 7 26.5t2 28.5v83h245v-129q-18 0 -39 -33l-116 -188l134 -211q16 -24 23 -31t12 -7v-129h-259v98q0 20 -3.5 30t-7.5 23l-10 30h-1l-9 -30
q-4 -13 -8 -23t-4 -30v-98h-258z" />
    <glyph glyph-name="afii10039" unicode="&#x425;" horiz-adv-x="568" 
d="M4 0v129q4 0 11.5 7t22.5 31l136 211l-117 188q-22 33 -38 33v129h243v-83q0 -19 2.5 -28.5t8.5 -26.5l10 -27h1l12 27q5 17 7 26.5t2 28.5v83h245v-129q-18 0 -39 -33l-116 -188l134 -211q16 -24 23 -31t12 -7v-129h-259v98q0 20 -3.5 30t-7.5 23l-10 30h-1l-9 -30
q-4 -13 -8 -23t-4 -30v-98h-258z" />
    <glyph glyph-name="afii10040" unicode="&#xd6;" horiz-adv-x="630" 
d="M333 728h257v-129q-24 0 -24 -67v-338q0 -36 15 -50.5t32 -14.5v-235h-187v33q0 45 -10 59t-45 14h-332v129q25 0 25 65v338q0 35 -6 51t-19 16v129h259v-129q-13 0 -18 -16t-5 -51v-383h81v383q0 67 -23 67v129z" />
    <glyph glyph-name="afii10040" unicode="&#x426;" horiz-adv-x="630" 
d="M333 728h257v-129q-24 0 -24 -67v-338q0 -36 15 -50.5t32 -14.5v-235h-187v33q0 45 -10 59t-45 14h-332v129q25 0 25 65v338q0 35 -6 51t-19 16v129h259v-129q-13 0 -18 -16t-5 -51v-383h81v383q0 67 -23 67v129z" />
    <glyph glyph-name="afii10041" unicode="&#xd7;" horiz-adv-x="605" 
d="M308 599v129h257v-129q-25 0 -25 -65v-338q0 -35 6 -51t19 -16v-129h-266v129q17 0 26 11t9 56v39q-18 -5 -44 -9t-41 -4q-62 0 -102.5 11.5t-64 38t-32.5 69.5t-9 106v87q0 65 -25 65v129h258v-129q-25 0 -25 -65v-87q0 -42 8.5 -58t28.5 -16q26 0 48 8v153q0 65 -26 65
z" />
    <glyph glyph-name="afii10041" unicode="&#x427;" horiz-adv-x="605" 
d="M308 599v129h257v-129q-25 0 -25 -65v-338q0 -35 6 -51t19 -16v-129h-266v129q17 0 26 11t9 56v39q-18 -5 -44 -9t-41 -4q-62 0 -102.5 11.5t-64 38t-32.5 69.5t-9 106v87q0 65 -25 65v129h258v-129q-25 0 -25 -65v-87q0 -42 8.5 -58t28.5 -16q26 0 48 8v153q0 65 -26 65
z" />
    <glyph glyph-name="afii10042" unicode="&#xd8;" horiz-adv-x="859" 
d="M328 728h202v-129q-22 0 -22 -67v-383h76v383q0 35 -4.5 51t-17.5 16v129h256v-129q-13 0 -18 -16t-5 -51v-338q0 -65 23 -65v-129h-779v129q25 0 25 65v338q0 35 -6 51t-19 16v129h258v-129q-12 0 -17 -16t-5 -51v-383h74v383q0 35 -4.5 51t-16.5 16v129z" />
    <glyph glyph-name="afii10042" unicode="&#x428;" horiz-adv-x="859" 
d="M328 728h202v-129q-22 0 -22 -67v-383h76v383q0 35 -4.5 51t-17.5 16v129h256v-129q-13 0 -18 -16t-5 -51v-338q0 -65 23 -65v-129h-779v129q25 0 25 65v338q0 35 -6 51t-19 16v129h258v-129q-12 0 -17 -16t-5 -51v-383h74v383q0 35 -4.5 51t-16.5 16v129z" />
    <glyph glyph-name="afii10043" unicode="&#xd9;" horiz-adv-x="859" 
d="M328 728h202v-129q-22 0 -22 -67v-374h76v374q0 35 -4.5 51t-17.5 16v129h256v-129q-13 0 -18 -16t-5 -51v-338q0 -31 15 -48t36 -17v-235h-194v33q0 40 -10 56.5t-44 16.5h-559v129q25 0 25 65v338q0 35 -6 51t-19 16v129h258v-129q-12 0 -17 -16t-5 -51v-374h74v374
q0 35 -4.5 51t-16.5 16v129z" />
    <glyph glyph-name="afii10043" unicode="&#x429;" horiz-adv-x="859" 
d="M328 728h202v-129q-22 0 -22 -67v-374h76v374q0 35 -4.5 51t-17.5 16v129h256v-129q-13 0 -18 -16t-5 -51v-338q0 -31 15 -48t36 -17v-235h-194v33q0 40 -10 56.5t-44 16.5h-559v129q25 0 25 65v338q0 35 -6 51t-19 16v129h258v-129q-12 0 -17 -16t-5 -51v-374h74v374
q0 35 -4.5 51t-16.5 16v129z" />
    <glyph glyph-name="afii10044" unicode="&#xda;" horiz-adv-x="746" 
d="M446 599q-15 0 -24.5 -15.5t-9.5 -49.5v-88h89q104 0 162 -58t58 -177q0 -64 -15 -105t-45 -64.5t-74.5 -32.5t-103.5 -9h-308v129q14 0 23 16t9 51v384h-11q-26 0 -33.5 -12t-7.5 -61v-20h-145v241h436v-129zM412 310v-159h22q71 0 71 81q0 78 -71 78h-22z" />
    <glyph glyph-name="afii10044" unicode="&#x42a;" horiz-adv-x="746" 
d="M446 599q-15 0 -24.5 -15.5t-9.5 -49.5v-88h89q104 0 162 -58t58 -177q0 -64 -15 -105t-45 -64.5t-74.5 -32.5t-103.5 -9h-308v129q14 0 23 16t9 51v384h-11q-26 0 -33.5 -12t-7.5 -61v-20h-145v241h436v-129zM412 310v-159h22q71 0 71 81q0 78 -71 78h-22z" />
    <glyph glyph-name="afii10045" unicode="&#xdb;" horiz-adv-x="879" 
d="M302 599q-16 0 -24 -15.5t-8 -49.5v-88h89q38 0 74 -14.5t64 -44t45 -73.5t17 -103q0 -64 -17.5 -105t-47 -64.5t-69.5 -32.5t-85 -9h-301v129q14 0 19.5 16t5.5 51v338q0 34 -5.5 49.5t-19.5 15.5v129h263v-129zM270 310v-159h21q36 0 48 19.5t12 61.5q0 40 -12 59
t-48 19h-21zM580 728h260v-129q-24 0 -24 -65v-338q0 -35 5 -51t19 -16v-129h-254v129q13 5 16.5 21t3.5 46v338q0 65 -26 65v129z" />
    <glyph glyph-name="afii10045" unicode="&#x42b;" horiz-adv-x="879" 
d="M302 599q-16 0 -24 -15.5t-8 -49.5v-88h89q38 0 74 -14.5t64 -44t45 -73.5t17 -103q0 -64 -17.5 -105t-47 -64.5t-69.5 -32.5t-85 -9h-301v129q14 0 19.5 16t5.5 51v338q0 34 -5.5 49.5t-19.5 15.5v129h263v-129zM270 310v-159h21q36 0 48 19.5t12 61.5q0 40 -12 59
t-48 19h-21zM580 728h260v-129q-24 0 -24 -65v-338q0 -35 5 -51t19 -16v-129h-254v129q13 5 16.5 21t3.5 46v338q0 65 -26 65v129z" />
    <glyph glyph-name="afii10046" unicode="&#xdc;" horiz-adv-x="604" 
d="M39 728h263v-129q-18 0 -25 -15.5t-7 -49.5v-88h89q103 0 161.5 -58t58.5 -177q0 -64 -15.5 -105t-45.5 -64.5t-74.5 -32.5t-103.5 -9h-301v129q14 0 19.5 16t5.5 51v338q0 34 -5.5 49.5t-19.5 15.5v129zM270 310v-159h21q72 0 72 81q0 78 -72 78h-21z" />
    <glyph glyph-name="afii10046" unicode="&#x42c;" horiz-adv-x="604" 
d="M39 728h263v-129q-18 0 -25 -15.5t-7 -49.5v-88h89q103 0 161.5 -58t58.5 -177q0 -64 -15.5 -105t-45.5 -64.5t-74.5 -32.5t-103.5 -9h-301v129q14 0 19.5 16t5.5 51v338q0 34 -5.5 49.5t-19.5 15.5v129zM270 310v-159h21q72 0 72 81q0 78 -72 78h-21z" />
    <glyph glyph-name="afii10047" unicode="&#xdd;" horiz-adv-x="577" 
d="M40 662q52 40 109 60.5t133 20.5q65 0 112.5 -11.5t78 -41t45.5 -80t15 -128.5v-237q0 -78 -14 -128t-44.5 -79.5t-78 -41t-114.5 -11.5q-82 0 -139.5 19t-102.5 57v205h199v-53q0 -39 10.5 -55t32.5 -16t31 16t9 55v91h-131v141h131v72q0 40 -9 55.5t-31 15.5
q-43 0 -43 -59v-42h-199v175z" />
    <glyph glyph-name="afii10047" unicode="&#x42d;" horiz-adv-x="577" 
d="M40 662q52 40 109 60.5t133 20.5q65 0 112.5 -11.5t78 -41t45.5 -80t15 -128.5v-237q0 -78 -14 -128t-44.5 -79.5t-78 -41t-114.5 -11.5q-82 0 -139.5 19t-102.5 57v205h199v-53q0 -39 10.5 -55t32.5 -16t31 16t9 55v91h-131v141h131v72q0 40 -9 55.5t-31 15.5
q-43 0 -43 -59v-42h-199v175z" />
    <glyph glyph-name="afii10048" unicode="&#xde;" horiz-adv-x="873" 
d="M339 306h-73v-110q0 -38 5 -52.5t18 -14.5v-129h-250v129q14 0 19.5 16t5.5 51v338q0 34 -5.5 49.5t-19.5 15.5v129h250v-129q-13 0 -18 -15t-5 -50v-87h73v35q0 75 13.5 125t43 80.5t76 43t113.5 12.5q66 0 112.5 -12.5t76 -43t43 -80.5t13.5 -125v-237
q0 -75 -13.5 -124.5t-43 -79.5t-76 -42.5t-112.5 -12.5q-67 0 -113.5 12.5t-76 42t-43 79.5t-13.5 125v61zM625 213v304q0 39 -10 55t-30 16q-23 0 -32 -15.5t-9 -55.5v-304q0 -39 9 -55.5t32 -16.5q20 0 30 17t10 55z" />
    <glyph glyph-name="afii10048" unicode="&#x42e;" horiz-adv-x="873" 
d="M339 306h-73v-110q0 -38 5 -52.5t18 -14.5v-129h-250v129q14 0 19.5 16t5.5 51v338q0 34 -5.5 49.5t-19.5 15.5v129h250v-129q-13 0 -18 -15t-5 -50v-87h73v35q0 75 13.5 125t43 80.5t76 43t113.5 12.5q66 0 112.5 -12.5t76 -43t43 -80.5t13.5 -125v-237
q0 -75 -13.5 -124.5t-43 -79.5t-76 -42.5t-112.5 -12.5q-67 0 -113.5 12.5t-76 42t-43 79.5t-13.5 125v61zM625 213v304q0 39 -10 55t-30 16q-23 0 -32 -15.5t-9 -55.5v-304q0 -39 9 -55.5t32 -16.5q20 0 30 17t10 55z" />
    <glyph glyph-name="afii10049" unicode="&#xdf;" horiz-adv-x="610" 
d="M338 422v157h-27q-35 0 -46.5 -17.5t-11.5 -59.5t13 -61t50 -19h22zM570 0h-259v129q27 0 27 67v83h-12q-18 0 -29.5 -2.5t-19 -12t-10.5 -27.5t-3 -49v-46q0 -63 -8 -95t-22 -47h-208v129q14 0 20 14.5t6 52.5v24q0 34 3 58t12 40.5t26 28t44 19.5q-50 16 -74 56.5
t-24 109.5q0 61 16 99.5t46 60t74 29t100 7.5h295v-129q-24 0 -24 -65v-338q0 -35 5 -51t19 -16v-129z" />
    <glyph glyph-name="afii10049" unicode="&#x42f;" horiz-adv-x="610" 
d="M338 422v157h-27q-35 0 -46.5 -17.5t-11.5 -59.5t13 -61t50 -19h22zM570 0h-259v129q27 0 27 67v83h-12q-18 0 -29.5 -2.5t-19 -12t-10.5 -27.5t-3 -49v-46q0 -63 -8 -95t-22 -47h-208v129q14 0 20 14.5t6 52.5v24q0 34 3 58t12 40.5t26 28t44 19.5q-50 16 -74 56.5
t-24 109.5q0 61 16 99.5t46 60t74 29t100 7.5h295v-129q-24 0 -24 -65v-338q0 -35 5 -51t19 -16v-129z" />
    <glyph glyph-name="afii10065" unicode="&#xe0;" horiz-adv-x="535" 
d="M296 161v71h-16q-33 0 -47 -11.5t-14 -46.5q0 -30 8 -39t23 -9q22 0 34 10.5t12 24.5zM503 0h-202l-5 48q-23 -28 -52.5 -42.5t-72.5 -14.5q-66 0 -102.5 40.5t-36.5 113.5q0 30 5.5 64.5t24.5 64t56.5 48.5t100.5 19q23 0 40.5 -3t36.5 -11v85q0 31 -9 43t-28 12
q-17 0 -26 -12t-9 -43v-18h-168v126q38 31 95 51.5t108 20.5q105 0 163 -41t58 -145v-237q0 -63 23 -63v-106z" />
    <glyph glyph-name="afii10065" unicode="&#x430;" horiz-adv-x="535" 
d="M296 161v71h-16q-33 0 -47 -11.5t-14 -46.5q0 -30 8 -39t23 -9q22 0 34 10.5t12 24.5zM503 0h-202l-5 48q-23 -28 -52.5 -42.5t-72.5 -14.5q-66 0 -102.5 40.5t-36.5 113.5q0 30 5.5 64.5t24.5 64t56.5 48.5t100.5 19q23 0 40.5 -3t36.5 -11v85q0 31 -9 43t-28 12
q-17 0 -26 -12t-9 -43v-18h-168v126q38 31 95 51.5t108 20.5q105 0 163 -41t58 -145v-237q0 -63 23 -63v-106z" />
    <glyph glyph-name="afii10066" unicode="&#xe1;" horiz-adv-x="522" 
d="M299 168v225q0 31 -9 43.5t-28 12.5t-28 -12.5t-9 -43.5v-225q0 -32 9 -45.5t28 -13.5t28 13.5t9 45.5zM318 760h152v-102q-16 -11 -33 -19t-40.5 -13t-56 -7.5t-78.5 -2.5q-28 0 -47 -11.5t-19 -49.5v-20q22 13 56 24t83 11q32 0 59 -10t46.5 -33t30.5 -62t11 -98v-176
q0 -58 -11.5 -97t-37.5 -62t-68 -33t-103 -10q-60 0 -102 9.5t-68 33t-38 62t-12 97.5v269q0 96 11.5 150t37.5 80.5t68 32t103 5.5q34 0 45 7.5t11 24.5z" />
    <glyph glyph-name="afii10066" unicode="&#x431;" horiz-adv-x="522" 
d="M299 168v225q0 31 -9 43.5t-28 12.5t-28 -12.5t-9 -43.5v-225q0 -32 9 -45.5t28 -13.5t28 13.5t9 45.5zM318 760h152v-102q-16 -11 -33 -19t-40.5 -13t-56 -7.5t-78.5 -2.5q-28 0 -47 -11.5t-19 -49.5v-20q22 13 56 24t83 11q32 0 59 -10t46.5 -33t30.5 -62t11 -98v-176
q0 -58 -11.5 -97t-37.5 -62t-68 -33t-103 -10q-60 0 -102 9.5t-68 33t-38 62t-12 97.5v269q0 96 11.5 150t37.5 80.5t68 32t103 5.5q34 0 45 7.5t11 24.5z" />
    <glyph glyph-name="afii10067" unicode="&#xe2;" horiz-adv-x="556" 
d="M244 460v-109h20q57 0 57 56q0 53 -53 53h-24zM244 247v-128h20q62 0 62 65q0 63 -70 63h-12zM38 0v106q25 0 25 54v259q0 54 -25 54v106h266q202 0 202 -150q0 -51 -26 -80.5t-59 -44.5q47 -15 71.5 -50.5t24.5 -85.5q0 -168 -211 -168h-268z" />
    <glyph glyph-name="afii10067" unicode="&#x432;" horiz-adv-x="556" 
d="M244 460v-109h20q57 0 57 56q0 53 -53 53h-24zM244 247v-128h20q62 0 62 65q0 63 -70 63h-12zM38 0v106q25 0 25 54v259q0 54 -25 54v106h266q202 0 202 -150q0 -51 -26 -80.5t-59 -44.5q47 -15 71.5 -50.5t24.5 -85.5q0 -168 -211 -168h-268z" />
    <glyph glyph-name="afii10068" unicode="&#xe3;" horiz-adv-x="480" 
d="M277 0h-240v106q26 0 26 54v261q0 52 -26 52v106h423v-229h-148v51q0 36 -10.5 48t-40.5 12h-13v-301q0 -54 29 -54v-106z" />
    <glyph glyph-name="afii10068" unicode="&#x433;" horiz-adv-x="480" 
d="M277 0h-240v106q26 0 26 54v261q0 52 -26 52v106h423v-229h-148v51q0 36 -10.5 48t-40.5 12h-13v-301q0 -54 29 -54v-106z" />
    <glyph glyph-name="afii10069" unicode="&#xe4;" horiz-adv-x="559" 
d="M176 -95h-163v201q26 13 40.5 33.5t14.5 61.5v218q0 29 -7 41.5t-24 12.5v106h482v-106q-22 0 -22 -54v-261q0 -25 8.5 -37t30.5 -15v-201h-165v38q0 31 -9.5 44t-40.5 13h-97q-30 0 -39 -13t-9 -44v-38zM312 119v341h-66v-283q0 -21 -5 -36.5t-9 -21.5h80z" />
    <glyph glyph-name="afii10069" unicode="&#x434;" horiz-adv-x="559" 
d="M176 -95h-163v201q26 13 40.5 33.5t14.5 61.5v218q0 29 -7 41.5t-24 12.5v106h482v-106q-22 0 -22 -54v-261q0 -25 8.5 -37t30.5 -15v-201h-165v38q0 31 -9.5 44t-40.5 13h-97q-30 0 -39 -13t-9 -44v-38zM312 119v341h-66v-283q0 -21 -5 -36.5t-9 -21.5h80z" />
    <glyph glyph-name="afii10070" unicode="&#xe5;" horiz-adv-x="525" 
d="M40 195v190q0 60 12.5 99.5t39.5 63.5t70 34t104 10q60 0 101.5 -10t68 -34t38 -63.5t11.5 -99.5v-134h-259v-56q0 -49 9.5 -64.5t30.5 -15.5q19 0 29.5 15.5t10.5 64.5h179v-125q-38 -44 -95.5 -62.5t-123.5 -18.5q-61 0 -104 10t-70 33.5t-39.5 63t-12.5 99.5zM226 385
v-20h80v20q0 50 -10.5 65t-29.5 15q-21 0 -30.5 -15t-9.5 -65z" />
    <glyph glyph-name="afii10070" unicode="&#x435;" horiz-adv-x="525" 
d="M40 195v190q0 60 12.5 99.5t39.5 63.5t70 34t104 10q60 0 101.5 -10t68 -34t38 -63.5t11.5 -99.5v-134h-259v-56q0 -49 9.5 -64.5t30.5 -15.5q19 0 29.5 15.5t10.5 64.5h179v-125q-38 -44 -95.5 -62.5t-123.5 -18.5q-61 0 -104 10t-70 33.5t-39.5 63t-12.5 99.5zM226 385
v-20h80v20q0 50 -10.5 65t-29.5 15q-21 0 -30.5 -15t-9.5 -65z" />
    <glyph glyph-name="afii10072" unicode="&#xe6;" horiz-adv-x="772" 
d="M549 579h198v-106q-8 0 -18 -4t-17 -15l-76 -114q47 -10 69.5 -49t22.5 -123q0 -40 7.5 -53t17.5 -13v-102h-189q-8 15 -14 59t-6 101q0 50 -9.5 66.5t-40.5 16.5h-18v-83q0 -54 23 -54v-106h-225v106q22 0 22 54v83h-18q-30 0 -39.5 -16.5t-9.5 -66.5q0 -57 -6.5 -101
t-14.5 -59h-189v102q10 0 17.5 13t7.5 53q0 84 22 123t69 49l-75 114q-7 11 -17.5 15t-17.5 4v106h198v-83q0 -13 3 -27.5t12 -28.5l58 -96v77q0 27 -4.5 39.5t-17.5 12.5v106h225v-106q-23 0 -23 -52v-77l59 96q8 14 11 28.5t3 27.5v83z" />
    <glyph glyph-name="afii10072" unicode="&#x436;" horiz-adv-x="772" 
d="M549 579h198v-106q-8 0 -18 -4t-17 -15l-76 -114q47 -10 69.5 -49t22.5 -123q0 -40 7.5 -53t17.5 -13v-102h-189q-8 15 -14 59t-6 101q0 50 -9.5 66.5t-40.5 16.5h-18v-83q0 -54 23 -54v-106h-225v106q22 0 22 54v83h-18q-30 0 -39.5 -16.5t-9.5 -66.5q0 -57 -6.5 -101
t-14.5 -59h-189v102q10 0 17.5 13t7.5 53q0 84 22 123t69 49l-75 114q-7 11 -17.5 15t-17.5 4v106h198v-83q0 -13 3 -27.5t12 -28.5l58 -96v77q0 27 -4.5 39.5t-17.5 12.5v106h225v-106q-23 0 -23 -52v-77l59 96q8 14 11 28.5t3 27.5v83z" />
    <glyph glyph-name="afii10073" unicode="&#xe7;" horiz-adv-x="519" 
d="M36 47v151h179v-29q0 -35 8.5 -47.5t28.5 -12.5t29.5 12.5t9.5 47.5q0 43 -12.5 57.5t-40.5 14.5h-41v106h41q28 0 38.5 15t10.5 58q0 49 -36 49q-21 0 -28.5 -12.5t-7.5 -37.5v-31h-176v139q41 32 98.5 48.5t113.5 16.5q119 0 171 -41.5t52 -121.5q0 -48 -20.5 -83.5
t-60.5 -46.5q47 -18 68 -44.5t21 -88.5q0 -46 -11.5 -79.5t-38 -55t-70.5 -32t-110 -10.5q-70 0 -121.5 14t-94.5 44z" />
    <glyph glyph-name="afii10073" unicode="&#x437;" horiz-adv-x="519" 
d="M36 47v151h179v-29q0 -35 8.5 -47.5t28.5 -12.5t29.5 12.5t9.5 47.5q0 43 -12.5 57.5t-40.5 14.5h-41v106h41q28 0 38.5 15t10.5 58q0 49 -36 49q-21 0 -28.5 -12.5t-7.5 -37.5v-31h-176v139q41 32 98.5 48.5t113.5 16.5q119 0 171 -41.5t52 -121.5q0 -48 -20.5 -83.5
t-60.5 -46.5q47 -18 68 -44.5t21 -88.5q0 -46 -11.5 -79.5t-38 -55t-70.5 -32t-110 -10.5q-70 0 -121.5 14t-94.5 44z" />
    <glyph glyph-name="afii10074" unicode="&#xe8;" horiz-adv-x="580" 
d="M269 0h-231v106q25 0 25 54v261q0 52 -25 52v106h231v-102q-11 0 -16 -8.5t-5 -33.5v-112l62 77q13 15 16.5 24.5t3.5 22.5q0 17 -4 23.5t-16 6.5v102h232v-106q-25 0 -25 -52v-261q0 -54 25 -54v-106h-232v102q12 0 16 11t4 43v109l-61 -82q-14 -19 -17.5 -25.5
t-3.5 -14.5q0 -19 4.5 -30t16.5 -11v-102z" />
    <glyph glyph-name="afii10074" unicode="&#x438;" horiz-adv-x="580" 
d="M269 0h-231v106q25 0 25 54v261q0 52 -25 52v106h231v-102q-11 0 -16 -8.5t-5 -33.5v-112l62 77q13 15 16.5 24.5t3.5 22.5q0 17 -4 23.5t-16 6.5v102h232v-106q-25 0 -25 -52v-261q0 -54 25 -54v-106h-232v102q12 0 16 11t4 43v109l-61 -82q-14 -19 -17.5 -25.5
t-3.5 -14.5q0 -19 4.5 -30t16.5 -11v-102z" />
    <glyph glyph-name="afii10075" unicode="&#xe9;" horiz-adv-x="580" 
d="M269 0h-231v106q25 0 25 54v261q0 52 -25 52v106h231v-102q-11 0 -16 -8.5t-5 -33.5v-112l62 77q13 15 16.5 24.5t3.5 22.5q0 17 -4 23.5t-16 6.5v102h232v-106q-25 0 -25 -52v-261q0 -54 25 -54v-106h-232v102q12 0 16 11t4 43v109l-61 -82q-14 -19 -17.5 -25.5
t-3.5 -14.5q0 -19 4.5 -30t16.5 -11v-102zM155 724v14h87v-13q0 -16 13.5 -27.5t34.5 -11.5q20 0 34 11.5t14 27.5v13h88v-14q0 -33 -11 -53.5t-29.5 -32t-43 -16t-52.5 -4.5t-52.5 4.5t-43 16t-29 32t-10.5 53.5z" />
    <glyph glyph-name="afii10075" unicode="&#x439;" horiz-adv-x="580" 
d="M269 0h-231v106q25 0 25 54v261q0 52 -25 52v106h231v-102q-11 0 -16 -8.5t-5 -33.5v-112l62 77q13 15 16.5 24.5t3.5 22.5q0 17 -4 23.5t-16 6.5v102h232v-106q-25 0 -25 -52v-261q0 -54 25 -54v-106h-232v102q12 0 16 11t4 43v109l-61 -82q-14 -19 -17.5 -25.5
t-3.5 -14.5q0 -19 4.5 -30t16.5 -11v-102zM155 724v14h87v-13q0 -16 13.5 -27.5t34.5 -11.5q20 0 34 11.5t14 27.5v13h88v-14q0 -33 -11 -53.5t-29.5 -32t-43 -16t-52.5 -4.5t-52.5 4.5t-43 16t-29 32t-10.5 53.5z" />
    <glyph glyph-name="afii10076" unicode="&#xea;" horiz-adv-x="551" 
d="M38 579h231v-106q-13 0 -17.5 -12.5t-4.5 -39.5v-77l60 96q8 14 10.5 28.5t2.5 27.5v83h206v-106q-22 0 -36 -19l-78 -114q28 -10 46 -22t28 -31.5t14 -48t4 -70.5q0 -40 8 -53t17 -13v-102h-191q-8 15 -14.5 59t-6.5 101q0 50 -14.5 66.5t-45.5 16.5h-10v-83
q0 -28 4.5 -41t17.5 -13v-106h-231v106q25 0 25 54v261q0 52 -25 52v106z" />
    <glyph glyph-name="afii10076" unicode="&#x43a;" horiz-adv-x="551" 
d="M38 579h231v-106q-13 0 -17.5 -12.5t-4.5 -39.5v-77l60 96q8 14 10.5 28.5t2.5 27.5v83h206v-106q-22 0 -36 -19l-78 -114q28 -10 46 -22t28 -31.5t14 -48t4 -70.5q0 -40 8 -53t17 -13v-102h-191q-8 15 -14.5 59t-6.5 101q0 50 -14.5 66.5t-45.5 16.5h-10v-83
q0 -28 4.5 -41t17.5 -13v-106h-231v106q25 0 25 54v261q0 52 -25 52v106z" />
    <glyph glyph-name="afii10077" unicode="&#xeb;" horiz-adv-x="564" 
d="M36 579h490v-106q-26 0 -26 -52v-261q0 -54 26 -54v-106h-229v106q19 0 19 54v300h-64v-305q0 -85 -36 -123.5t-116 -38.5q-46 0 -90 9v104q34 0 49 16t15 50v249q0 27 -7.5 39.5t-30.5 12.5v106z" />
    <glyph glyph-name="afii10077" unicode="&#x43b;" horiz-adv-x="564" 
d="M36 579h490v-106q-26 0 -26 -52v-261q0 -54 26 -54v-106h-229v106q19 0 19 54v300h-64v-305q0 -85 -36 -123.5t-116 -38.5q-46 0 -90 9v104q34 0 49 16t15 50v249q0 27 -7.5 39.5t-30.5 12.5v106z" />
    <glyph glyph-name="afii10078" unicode="&#xec;" horiz-adv-x="667" 
d="M255 0h-217v106q25 0 25 54v261q0 52 -25 52v106h232l64 -251l56 251h238v-106q-24 0 -24 -52v-261q0 -54 24 -54v-106h-216v106q12 0 16 13t4 41v168l-68 -222h-62l-66 222v-168q0 -28 3 -41t16 -13v-106z" />
    <glyph glyph-name="afii10078" unicode="&#x43c;" horiz-adv-x="667" 
d="M255 0h-217v106q25 0 25 54v261q0 52 -25 52v106h232l64 -251l56 251h238v-106q-24 0 -24 -52v-261q0 -54 24 -54v-106h-216v106q12 0 16 13t4 41v168l-68 -222h-62l-66 222v-168q0 -28 3 -41t16 -13v-106z" />
    <glyph glyph-name="afii10079" unicode="&#xed;" horiz-adv-x="574" 
d="M267 0h-229v106q25 0 25 54v260q0 53 -25 53v106h229v-106q-12 0 -16 -13t-4 -40v-70h81v70q0 53 -21 53v106h229v-106q-25 0 -25 -53v-260q0 -54 25 -54v-106h-229v106q21 0 21 54v78h-81v-78q0 -28 4 -41t16 -13v-106z" />
    <glyph glyph-name="afii10079" unicode="&#x43d;" horiz-adv-x="574" 
d="M267 0h-229v106q25 0 25 54v260q0 53 -25 53v106h229v-106q-12 0 -16 -13t-4 -40v-70h81v70q0 53 -21 53v106h229v-106q-25 0 -25 -53v-260q0 -54 25 -54v-106h-229v106q21 0 21 54v78h-81v-78q0 -28 4 -41t16 -13v-106z" />
    <glyph glyph-name="afii10080" unicode="&#xee;" horiz-adv-x="526" 
d="M301 195v190q0 50 -9 65t-28 15q-20 0 -29 -15t-9 -65v-190q0 -49 9 -64.5t29 -15.5q19 0 28 15.5t9 64.5zM40 195v190q0 60 12.5 99.5t39.5 63.5t69.5 34t102.5 10t102.5 -10t69.5 -34t39 -63.5t12 -99.5v-190q0 -59 -12 -98.5t-39 -63.5t-69.5 -34t-102.5 -10
t-102.5 10t-69.5 33.5t-39.5 63t-12.5 99.5z" />
    <glyph glyph-name="afii10080" unicode="&#x43e;" horiz-adv-x="526" 
d="M301 195v190q0 50 -9 65t-28 15q-20 0 -29 -15t-9 -65v-190q0 -49 9 -64.5t29 -15.5q19 0 28 15.5t9 64.5zM40 195v190q0 60 12.5 99.5t39.5 63.5t69.5 34t102.5 10t102.5 -10t69.5 -34t39 -63.5t12 -99.5v-190q0 -59 -12 -98.5t-39 -63.5t-69.5 -34t-102.5 -10
t-102.5 10t-69.5 33.5t-39.5 63t-12.5 99.5z" />
    <glyph glyph-name="afii10081" unicode="&#xef;" horiz-adv-x="563" 
d="M268 0h-230v106q14 0 19.5 14t5.5 39v261q0 53 -25 53v106h488v-106q-26 0 -26 -53v-261q0 -53 26 -53v-106h-230v106q10 4 15.5 15t5.5 38v301h-70v-301q0 -29 5.5 -39t15.5 -14v-106z" />
    <glyph glyph-name="afii10081" unicode="&#x43f;" horiz-adv-x="563" 
d="M268 0h-230v106q14 0 19.5 14t5.5 39v261q0 53 -25 53v106h488v-106q-26 0 -26 -53v-261q0 -53 26 -53v-106h-230v106q10 4 15.5 15t5.5 38v301h-70v-301q0 -29 5.5 -39t15.5 -14v-106z" />
    <glyph glyph-name="afii10082" unicode="&#xf0;" horiz-adv-x="540" 
d="M243 420v-283q14 -11 31 -11q22 0 31 21t9 83v139q0 53 -9 69t-30 16q-7 0 -19.5 -7t-12.5 -27zM34 579h196l6 -35q22 22 55 35t70 13q73 0 106 -50t33 -173v-139q0 -62 -5.5 -107t-20.5 -75t-42 -44.5t-71 -14.5q-29 0 -61 10t-57 30v-35q0 -47 8.5 -66t21.5 -19v-107
h-239v107q10 0 17.5 18.5t7.5 64.5v419q0 32 -7.5 47t-17.5 15v106z" />
    <glyph glyph-name="afii10082" unicode="&#x440;" horiz-adv-x="540" 
d="M243 420v-283q14 -11 31 -11q22 0 31 21t9 83v139q0 53 -9 69t-30 16q-7 0 -19.5 -7t-12.5 -27zM34 579h196l6 -35q22 22 55 35t70 13q73 0 106 -50t33 -173v-139q0 -62 -5.5 -107t-20.5 -75t-42 -44.5t-71 -14.5q-29 0 -61 10t-57 30v-35q0 -47 8.5 -66t21.5 -19v-107
h-239v107q10 0 17.5 18.5t7.5 64.5v419q0 32 -7.5 47t-17.5 15v106z" />
    <glyph glyph-name="afii10083" unicode="&#xf1;" horiz-adv-x="503" 
d="M468 521v-165h-166v55q0 31 -10 43.5t-28 12.5q-20 0 -29 -15.5t-9 -67.5v-189q0 -52 9 -67t29 -15q19 0 28.5 12.5t9.5 43.5v66h166v-180q-39 -33 -88 -50t-122 -17q-116 0 -167 46t-51 161v189q0 111 52.5 159t165.5 48q66 0 116 -18t94 -52z" />
    <glyph glyph-name="afii10083" unicode="&#x441;" horiz-adv-x="503" 
d="M468 521v-165h-166v55q0 31 -10 43.5t-28 12.5q-20 0 -29 -15.5t-9 -67.5v-189q0 -52 9 -67t29 -15q19 0 28.5 12.5t9.5 43.5v66h166v-180q-39 -33 -88 -50t-122 -17q-116 0 -167 46t-51 161v189q0 111 52.5 159t165.5 48q66 0 116 -18t94 -52z" />
    <glyph glyph-name="afii10084" unicode="&#xf2;" horiz-adv-x="551" 
d="M14 579h522v-230h-125v73q0 38 -43 38v-300q0 -28 9.5 -41t22.5 -13v-106h-248v106q12 0 21.5 13t9.5 41v300q-43 0 -43 -38v-73h-126v230z" />
    <glyph glyph-name="afii10084" unicode="&#x442;" horiz-adv-x="551" 
d="M14 579h522v-230h-125v73q0 38 -43 38v-300q0 -28 9.5 -41t22.5 -13v-106h-248v106q12 0 21.5 13t9.5 41v300q-43 0 -43 -38v-73h-126v230z" />
    <glyph glyph-name="afii10085" unicode="&#xf3;" horiz-adv-x="540" 
d="M5 579h253v-106q-8 0 -13.5 -6.5t-5.5 -22.5q0 -4 1.5 -14t5.5 -28l39 -183l35 179q2 10 3 19.5t1 26.5q0 29 -19 29v106h230v-106q-6 0 -13.5 -11.5t-18.5 -48.5l-121 -446q-25 -89 -62 -133t-97 -44q-11 0 -27 2t-33 5t-33.5 7t-28.5 8v118q47 0 62 10t23 27l-146 454
q-10 34 -17.5 43t-17.5 9v106z" />
    <glyph glyph-name="afii10085" unicode="&#x443;" horiz-adv-x="540" 
d="M5 579h253v-106q-8 0 -13.5 -6.5t-5.5 -22.5q0 -4 1.5 -14t5.5 -28l39 -183l35 179q2 10 3 19.5t1 26.5q0 29 -19 29v106h230v-106q-6 0 -13.5 -11.5t-18.5 -48.5l-121 -446q-25 -89 -62 -133t-97 -44q-11 0 -27 2t-33 5t-33.5 7t-28.5 8v118q47 0 62 10t23 27l-146 454
q-10 34 -17.5 43t-17.5 9v106z" />
    <glyph glyph-name="afii10086" unicode="&#xf4;" horiz-adv-x="753" 
d="M466 430v-267q16 -11 29 -11q22 0 30.5 15t8.5 66v127q0 44 -9.5 60t-32.5 16q-12 0 -26 -6zM287 547v52q0 33 -6.5 44.5t-20.5 11.5v106h232v-106q-13 0 -19.5 -11.5t-6.5 -44.5v-52q27 22 54 33.5t60 11.5q70 0 102 -57t32 -164v-138q0 -53 -5 -95.5t-20 -73.5
t-41.5 -47.5t-68.5 -16.5q-26 0 -56 8t-57 24v-51q0 -40 6.5 -56t19.5 -16v-107h-232v107q14 0 20.5 16t6.5 56v51q-55 -32 -111 -32q-43 0 -69.5 16.5t-41.5 47.5t-20 73.5t-5 95.5v138q0 107 31.5 164t102.5 57q33 0 59.5 -11.5t53.5 -33.5zM287 163v267q-13 6 -27 6
q-22 0 -31.5 -16t-9.5 -60v-127q0 -51 8.5 -66t30.5 -15q13 0 29 11z" />
    <glyph glyph-name="afii10086" unicode="&#x444;" horiz-adv-x="753" 
d="M466 430v-267q16 -11 29 -11q22 0 30.5 15t8.5 66v127q0 44 -9.5 60t-32.5 16q-12 0 -26 -6zM287 547v52q0 33 -6.5 44.5t-20.5 11.5v106h232v-106q-13 0 -19.5 -11.5t-6.5 -44.5v-52q27 22 54 33.5t60 11.5q70 0 102 -57t32 -164v-138q0 -53 -5 -95.5t-20 -73.5
t-41.5 -47.5t-68.5 -16.5q-26 0 -56 8t-57 24v-51q0 -40 6.5 -56t19.5 -16v-107h-232v107q14 0 20.5 16t6.5 56v51q-55 -32 -111 -32q-43 0 -69.5 16.5t-41.5 47.5t-20 73.5t-5 95.5v138q0 107 31.5 164t102.5 57q33 0 59.5 -11.5t53.5 -33.5zM287 163v267q-13 6 -27 6
q-22 0 -31.5 -16t-9.5 -60v-127q0 -51 8.5 -66t30.5 -15q13 0 29 11z" />
    <glyph glyph-name="afii10087" unicode="&#xf5;" horiz-adv-x="495" 
d="M1 0v102q5 0 11 5.5t20 24.5l118 169l-102 149q-21 27 -35 27v102h215v-66q0 -11 1.5 -19.5t6.5 -24.5l11 -39h1l11 39q5 16 6 24.5t1 19.5v66h216v-102q-15 0 -36 -27l-101 -149l119 -169q14 -19 20 -24.5t10 -5.5v-102h-228v78q0 20 -9 43l-9 28h-1l-9 -28
q-10 -23 -10 -43v-78h-227z" />
    <glyph glyph-name="afii10087" unicode="&#x445;" horiz-adv-x="495" 
d="M1 0v102q5 0 11 5.5t20 24.5l118 169l-102 149q-21 27 -35 27v102h215v-66q0 -11 1.5 -19.5t6.5 -24.5l11 -39h1l11 39q5 16 6 24.5t1 19.5v66h216v-102q-15 0 -36 -27l-101 -149l119 -169q14 -19 20 -24.5t10 -5.5v-102h-228v78q0 20 -9 43l-9 28h-1l-9 -28
q-10 -23 -10 -43v-78h-227z" />
    <glyph glyph-name="afii10088" unicode="&#xf6;" horiz-adv-x="570" 
d="M301 579h228v-106q-24 0 -24 -54v-261q0 -28 14.5 -40t30.5 -12v-201h-167v38q0 35 -8 46t-38 11h-299v106q25 0 25 52v261q0 54 -25 54v106h231v-106q-20 0 -20 -54v-300h71v300q0 54 -19 54v106z" />
    <glyph glyph-name="afii10088" unicode="&#x446;" horiz-adv-x="570" 
d="M301 579h228v-106q-24 0 -24 -54v-261q0 -28 14.5 -40t30.5 -12v-201h-167v38q0 35 -8 46t-38 11h-299v106q25 0 25 52v261q0 54 -25 54v106h231v-106q-20 0 -20 -54v-300h71v300q0 54 -19 54v106z" />
    <glyph glyph-name="afii10089" unicode="&#xf7;" horiz-adv-x="538" 
d="M272 473v106h228v-106q-25 0 -25 -52v-261q0 -31 6.5 -42.5t18.5 -11.5v-106h-238v106q16 0 24 11t8 43v35q-17 -7 -39 -10t-36 -3q-55 0 -90 8.5t-54.5 28.5t-27 53.5t-7.5 82.5v70q0 52 -21 52v102h221v-106q-21 0 -21 -52v-66q0 -33 8.5 -45.5t24.5 -12.5q22 0 42 9
v115q0 52 -22 52z" />
    <glyph glyph-name="afii10089" unicode="&#x447;" horiz-adv-x="538" 
d="M272 473v106h228v-106q-25 0 -25 -52v-261q0 -31 6.5 -42.5t18.5 -11.5v-106h-238v106q16 0 24 11t8 43v35q-17 -7 -39 -10t-36 -3q-55 0 -90 8.5t-54.5 28.5t-27 53.5t-7.5 82.5v70q0 52 -21 52v102h221v-106q-21 0 -21 -52v-66q0 -33 8.5 -45.5t24.5 -12.5q22 0 42 9
v115q0 52 -22 52z" />
    <glyph glyph-name="afii10090" unicode="&#xf8;" horiz-adv-x="769" 
d="M297 579h176v-106q-18 0 -18 -54v-300h66v300q0 29 -4 41.5t-15 12.5v106h230v-106q-26 0 -26 -54v-261q0 -52 26 -52v-106h-694v106q10 0 17.5 13t7.5 39v261q0 54 -25 54v106h230v-106q-19 0 -19 -54v-300h66v300q0 54 -18 54v106z" />
    <glyph glyph-name="afii10090" unicode="&#x448;" horiz-adv-x="769" 
d="M297 579h176v-106q-18 0 -18 -54v-300h66v300q0 29 -4 41.5t-15 12.5v106h230v-106q-26 0 -26 -54v-261q0 -52 26 -52v-106h-694v106q10 0 17.5 13t7.5 39v261q0 54 -25 54v106h230v-106q-19 0 -19 -54v-300h66v300q0 54 -18 54v106z" />
    <glyph glyph-name="afii10091" unicode="&#xf9;" horiz-adv-x="772" 
d="M751 -95h-165v38q0 33 -7.5 44.5t-33.5 12.5h-507v106q10 0 17.5 13t7.5 39v261q0 54 -25 54v106h230v-106q-19 0 -19 -54v-300h66v300q0 54 -18 54v106h176v-106q-18 0 -18 -54v-300h66v300q0 29 -4 41.5t-15 12.5v106h230v-106q-26 0 -26 -54v-268q2 -24 16.5 -34.5
t28.5 -10.5v-201z" />
    <glyph glyph-name="afii10091" unicode="&#x449;" horiz-adv-x="772" 
d="M751 -95h-165v38q0 33 -7.5 44.5t-33.5 12.5h-507v106q10 0 17.5 13t7.5 39v261q0 54 -25 54v106h230v-106q-19 0 -19 -54v-300h66v300q0 54 -18 54v106h176v-106q-18 0 -18 -54v-300h66v300q0 29 -4 41.5t-15 12.5v106h230v-106q-26 0 -26 -54v-268q2 -24 16.5 -34.5
t28.5 -10.5v-201z" />
    <glyph glyph-name="afii10092" unicode="&#xfa;" horiz-adv-x="668" 
d="M13 579h385v-106q-15 0 -23.5 -12t-8.5 -40v-67h79q91 0 142 -46t51 -140q0 -51 -13.5 -83.5t-40 -51t-65.5 -26t-91 -7.5h-272v106q29 0 29 54v301h-9q-22 0 -29.5 -9t-7.5 -49v-53h-126v229zM366 247v-128h18q63 0 63 65q0 63 -63 63h-18z" />
    <glyph glyph-name="afii10092" unicode="&#x44a;" horiz-adv-x="668" 
d="M13 579h385v-106q-15 0 -23.5 -12t-8.5 -40v-67h79q91 0 142 -46t51 -140q0 -51 -13.5 -83.5t-40 -51t-65.5 -26t-91 -7.5h-272v106q29 0 29 54v301h-9q-22 0 -29.5 -9t-7.5 -49v-53h-126v229zM366 247v-128h18q63 0 63 65q0 63 -63 63h-18z" />
    <glyph glyph-name="afii10093" unicode="&#xfb;" horiz-adv-x="789" 
d="M38 579h235v-106q-28 0 -28 -52v-67h77q33 0 65 -11.5t57 -34.5t40 -58t15 -82q0 -51 -15.5 -83.5t-41.5 -51t-61.5 -26t-74.5 -7.5h-268v106q25 0 25 54v261q0 52 -25 52v106zM245 247v-128h19q31 0 41.5 16t10.5 49q0 32 -10.5 47.5t-41.5 15.5h-19zM515 579h236v-106
q-26 0 -26 -52v-261q0 -54 26 -54v-106h-233v106q21 8 21 54v261q0 52 -24 52v106z" />
    <glyph glyph-name="afii10093" unicode="&#x44b;" horiz-adv-x="789" 
d="M38 579h235v-106q-28 0 -28 -52v-67h77q33 0 65 -11.5t57 -34.5t40 -58t15 -82q0 -51 -15.5 -83.5t-41.5 -51t-61.5 -26t-74.5 -7.5h-268v106q25 0 25 54v261q0 52 -25 52v106zM245 247v-128h19q31 0 41.5 16t10.5 49q0 32 -10.5 47.5t-41.5 15.5h-19zM515 579h236v-106
q-26 0 -26 -52v-261q0 -54 26 -54v-106h-233v106q21 8 21 54v261q0 52 -24 52v106z" />
    <glyph glyph-name="afii10094" unicode="&#xfc;" horiz-adv-x="546" 
d="M38 579h235v-106q-17 0 -22.5 -12.5t-5.5 -39.5v-67h77q92 0 143.5 -46t51.5 -140q0 -96 -53.5 -132t-157.5 -36h-268v106q25 0 25 54v261q0 52 -25 52v106zM245 247v-126h19q62 0 62 63t-62 63h-19z" />
    <glyph glyph-name="afii10094" unicode="&#x44c;" horiz-adv-x="546" 
d="M38 579h235v-106q-17 0 -22.5 -12.5t-5.5 -39.5v-67h77q92 0 143.5 -46t51.5 -140q0 -96 -53.5 -132t-157.5 -36h-268v106q25 0 25 54v261q0 52 -25 52v106zM245 247v-126h19q62 0 62 63t-62 63h-19z" />
    <glyph glyph-name="afii10095" unicode="&#xfd;" horiz-adv-x="508" 
d="M36 526q45 32 94.5 48.5t116.5 16.5q57 0 99 -9.5t69.5 -32.5t40.5 -63t13 -102v-189q0 -61 -12.5 -101.5t-39.5 -63.5t-69 -32.5t-101 -9.5q-73 0 -122 15t-89 46v150h174v-30q0 -31 8.5 -43.5t28.5 -12.5q19 0 27.5 12.5t8.5 43.5v73h-107v112h107v57q0 32 -8.5 44
t-27.5 12t-28 -10.5t-9 -35.5v-24h-174v129z" />
    <glyph glyph-name="afii10095" unicode="&#x44d;" horiz-adv-x="508" 
d="M36 526q45 32 94.5 48.5t116.5 16.5q57 0 99 -9.5t69.5 -32.5t40.5 -63t13 -102v-189q0 -61 -12.5 -101.5t-39.5 -63.5t-69 -32.5t-101 -9.5q-73 0 -122 15t-89 46v150h174v-30q0 -31 8.5 -43.5t28.5 -12.5q19 0 27.5 12.5t8.5 43.5v73h-107v112h107v57q0 32 -8.5 44
t-27.5 12t-28 -10.5t-9 -35.5v-24h-174v129z" />
    <glyph glyph-name="afii10096" unicode="&#xfe;" horiz-adv-x="778" 
d="M305 243h-64v-83q0 -29 4.5 -41.5t15.5 -12.5v-106h-223v106q25 0 25 54v261q0 52 -25 52v106h223v-106q-11 0 -15.5 -12t-4.5 -40v-66h64v29q0 60 12 99.5t38 63.5t67 34t100 10q58 0 99 -10t66.5 -34t37.5 -63.5t12 -99.5v-189q0 -60 -12 -99.5t-37.5 -63t-66.5 -33.5
t-99 -10q-59 0 -100 9.5t-67 33.5t-38 63.5t-12 99.5v48zM557 169v242q0 31 -8.5 43.5t-26.5 12.5q-20 0 -28 -12.5t-8 -43.5v-242q0 -31 8 -44t28 -13q18 0 26.5 13t8.5 44z" />
    <glyph glyph-name="afii10096" unicode="&#x44e;" horiz-adv-x="778" 
d="M305 243h-64v-83q0 -29 4.5 -41.5t15.5 -12.5v-106h-223v106q25 0 25 54v261q0 52 -25 52v106h223v-106q-11 0 -15.5 -12t-4.5 -40v-66h64v29q0 60 12 99.5t38 63.5t67 34t100 10q58 0 99 -10t66.5 -34t37.5 -63.5t12 -99.5v-189q0 -60 -12 -99.5t-37.5 -63t-66.5 -33.5
t-99 -10q-59 0 -100 9.5t-67 33.5t-38 63.5t-12 99.5v48zM557 169v242q0 31 -8.5 43.5t-26.5 12.5q-20 0 -28 -12.5t-8 -43.5v-242q0 -31 8 -44t28 -13q18 0 26.5 13t8.5 44z" />
    <glyph glyph-name="afii10097" unicode="&#xff;" horiz-adv-x="551" 
d="M303 336v124h-22q-32 0 -41.5 -14t-9.5 -47q0 -34 11 -48.5t43 -14.5h19zM512 0h-231v106q22 0 22 54v61h-9q-32 0 -44 -11.5t-12 -60.5v-36q0 -50 -6 -75.5t-20 -37.5h-184v106q14 0 19.5 12.5t5.5 41.5v15q0 54 13 78.5t62 37.5q-87 25 -87 132q0 48 14 78.5t40.5 48
t65.5 23.5t88 6h263v-106q-24 0 -24 -52v-261q0 -54 24 -54v-106z" />
    <glyph glyph-name="afii10097" unicode="&#x44f;" horiz-adv-x="551" 
d="M303 336v124h-22q-32 0 -41.5 -14t-9.5 -47q0 -34 11 -48.5t43 -14.5h19zM512 0h-231v106q22 0 22 54v61h-9q-32 0 -44 -11.5t-12 -60.5v-36q0 -50 -6 -75.5t-20 -37.5h-184v106q14 0 19.5 12.5t5.5 41.5v15q0 54 13 78.5t62 37.5q-87 25 -87 132q0 48 14 78.5t40.5 48
t65.5 23.5t88 6h263v-106q-24 0 -24 -52v-261q0 -54 24 -54v-106z" />
    <glyph glyph-name="quilsinglleft" unicode="&#x2039;" horiz-adv-x="297" 
d="M256 96h-142l-74 181l74 181h142l-73 -181z" />
    <glyph glyph-name="quilsinglright" unicode="&#x203a;" horiz-adv-x="297" 
d="M40 96l73 181l-73 181h142l74 -181l-74 -181h-142z" />
    </font>
</defs>
</svg>
